<?xml version="1.0" encoding="UTF-8" standalone="no"?>
<!DOCTYPE svg PUBLIC "-//W3C//DTD SVG 1.1//EN" "http://www.w3.org/Graphics/SVG/1.1/DTD/svg11.dtd">
<svg version="1.1" xmlns="http://www.w3.org/2000/svg" xmlns:xlink="http://www.w3.org/1999/xlink" preserveAspectRatio="xMidYMid meet" viewBox="0 0 255 320" width="255" height="320"><defs><path d="M11.14 4.05C15.05 4.05 18.22 7.22 18.22 11.13C18.22 12.83 18.22 10.84 18.22 12.54C18.22 16.45 15.05 19.62 11.14 19.62C9.73 19.62 12.56 19.62 11.14 19.62C7.24 19.62 4.07 16.45 4.07 12.54C4.07 10.84 4.07 12.83 4.07 11.13C4.07 7.22 7.24 4.05 11.14 4.05C12.56 4.05 9.73 4.05 11.14 4.05Z" id="c83yexLl1A"></path><path d="M30.05 4.05C33.96 4.05 37.13 7.22 37.13 11.13C37.13 12.83 37.13 10.84 37.13 12.54C37.13 16.45 33.96 19.62 30.05 19.62C28.63 19.62 31.46 19.62 30.05 19.62C26.14 19.62 22.97 16.45 22.97 12.54C22.97 10.84 22.97 12.83 22.97 11.13C22.97 7.22 26.14 4.05 30.05 4.05C31.46 4.05 28.63 4.05 30.05 4.05Z" id="a1jKbB46KY"></path><path d="M50.99 4.05C54.89 4.05 58.06 7.22 58.06 11.13C58.06 12.83 58.06 10.84 58.06 12.54C58.06 16.45 54.89 19.62 50.99 19.62C49.57 19.62 52.4 19.62 50.99 19.62C47.08 19.62 43.91 16.45 43.91 12.54C43.91 10.84 43.91 12.83 43.91 11.13C43.91 7.22 47.08 4.05 50.99 4.05C52.4 4.05 49.57 4.05 50.99 4.05Z" id="gby9v1i4q"></path><path d="M69.89 4.05C73.8 4.05 76.97 7.22 76.97 11.13C76.97 12.83 76.97 10.84 76.97 12.54C76.97 16.45 73.8 19.62 69.89 19.62C68.48 19.62 71.31 19.62 69.89 19.62C65.99 19.62 62.82 16.45 62.82 12.54C62.82 10.84 62.82 12.83 62.82 11.13C62.82 7.22 65.99 4.05 69.89 4.05C71.31 4.05 68.48 4.05 69.89 4.05Z" id="f8GiSv1tD"></path><path d="M90.83 4.05C94.74 4.05 97.91 7.22 97.91 11.13C97.91 12.83 97.91 10.84 97.91 12.54C97.91 16.45 94.74 19.62 90.83 19.62C89.42 19.62 92.25 19.62 90.83 19.62C86.92 19.62 83.75 16.45 83.75 12.54C83.75 10.84 83.75 12.83 83.75 11.13C83.75 7.22 86.92 4.05 90.83 4.05C92.25 4.05 89.42 4.05 90.83 4.05Z" id="e1zNRtKkD"></path><path d="M109.74 4.05C113.64 4.05 116.81 7.22 116.81 11.13C116.81 12.83 116.81 10.84 116.81 12.54C116.81 16.45 113.64 19.62 109.74 19.62C108.32 19.62 111.15 19.62 109.74 19.62C105.83 19.62 102.66 16.45 102.66 12.54C102.66 10.84 102.66 12.83 102.66 11.13C102.66 7.22 105.83 4.05 109.74 4.05C111.15 4.05 108.32 4.05 109.74 4.05Z" id="aILowmoZG"></path><path d="M129.67 4.05C133.58 4.05 136.75 7.22 136.75 11.13C136.75 12.83 136.75 10.84 136.75 12.54C136.75 16.45 133.58 19.62 129.67 19.62C128.26 19.62 131.09 19.62 129.67 19.62C125.77 19.62 122.6 16.45 122.6 12.54C122.6 10.84 122.6 12.83 122.6 11.13C122.6 7.22 125.77 4.05 129.67 4.05C131.09 4.05 128.26 4.05 129.67 4.05Z" id="bkH4dALMY"></path><path d="M148.58 4.05C152.49 4.05 155.66 7.22 155.66 11.13C155.66 12.83 155.66 10.84 155.66 12.54C155.66 16.45 152.49 19.62 148.58 19.62C147.17 19.62 150 19.62 148.58 19.62C144.67 19.62 141.5 16.45 141.5 12.54C141.5 10.84 141.5 12.83 141.5 11.13C141.5 7.22 144.67 4.05 148.58 4.05C150 4.05 147.17 4.05 148.58 4.05Z" id="b5y8fSzppX"></path><path d="M169.52 4.05C173.43 4.05 176.59 7.22 176.59 11.13C176.59 12.83 176.59 10.84 176.59 12.54C176.59 16.45 173.43 19.62 169.52 19.62C168.1 19.62 170.93 19.62 169.52 19.62C165.61 19.62 162.44 16.45 162.44 12.54C162.44 10.84 162.44 12.83 162.44 11.13C162.44 7.22 165.61 4.05 169.52 4.05C170.93 4.05 168.1 4.05 169.52 4.05Z" id="b28FqTmH3w"></path><path d="M189.42 4.05C193.33 4.05 196.5 7.22 196.5 11.13C196.5 12.83 196.5 10.84 196.5 12.54C196.5 16.45 193.33 19.62 189.42 19.62C188.01 19.62 190.84 19.62 189.42 19.62C185.52 19.62 182.35 16.45 182.35 12.54C182.35 10.84 182.35 12.83 182.35 11.13C182.35 7.22 185.52 4.05 189.42 4.05C190.84 4.05 188.01 4.05 189.42 4.05Z" id="g4Fj3rjjk"></path><path d="M209.36 4.05C213.27 4.05 216.44 7.22 216.44 11.13C216.44 12.83 216.44 10.84 216.44 12.54C216.44 16.45 213.27 19.62 209.36 19.62C207.95 19.62 210.78 19.62 209.36 19.62C205.45 19.62 202.29 16.45 202.29 12.54C202.29 10.84 202.29 12.83 202.29 11.13C202.29 7.22 205.45 4.05 209.36 4.05C210.78 4.05 207.95 4.05 209.36 4.05Z" id="aQMRm3yOF"></path><path d="M228.27 4.05C232.18 4.05 235.34 7.22 235.34 11.13C235.34 12.83 235.34 10.84 235.34 12.54C235.34 16.45 232.18 19.62 228.27 19.62C226.85 19.62 229.68 19.62 228.27 19.62C224.36 19.62 221.19 16.45 221.19 12.54C221.19 10.84 221.19 12.83 221.19 11.13C221.19 7.22 224.36 4.05 228.27 4.05C229.68 4.05 226.85 4.05 228.27 4.05Z" id="aj9CbuTWw"></path><path d="M247.21 4.05C251.11 4.05 254.28 7.22 254.28 11.13C254.28 12.83 254.28 10.84 254.28 12.54C254.28 16.45 251.11 19.62 247.21 19.62C245.79 19.62 248.62 19.62 247.21 19.62C243.3 19.62 240.13 16.45 240.13 12.54C240.13 10.84 240.13 12.83 240.13 11.13C240.13 7.22 243.3 4.05 247.21 4.05C248.62 4.05 245.79 4.05 247.21 4.05Z" id="a27NZesXX"></path><path d="M11.14 24.05C15.05 24.05 18.22 27.22 18.22 31.13C18.22 32.83 18.22 30.84 18.22 32.54C18.22 36.45 15.05 39.62 11.14 39.62C9.73 39.62 12.56 39.62 11.14 39.62C7.24 39.62 4.07 36.45 4.07 32.54C4.07 30.84 4.07 32.83 4.07 31.13C4.07 27.22 7.24 24.05 11.14 24.05C12.56 24.05 9.73 24.05 11.14 24.05Z" id="h2Gnzr8JqS"></path><path d="M30.05 24.05C33.96 24.05 37.13 27.22 37.13 31.13C37.13 32.83 37.13 30.84 37.13 32.54C37.13 36.45 33.96 39.62 30.05 39.62C28.63 39.62 31.46 39.62 30.05 39.62C26.14 39.62 22.97 36.45 22.97 32.54C22.97 30.84 22.97 32.83 22.97 31.13C22.97 27.22 26.14 24.05 30.05 24.05C31.46 24.05 28.63 24.05 30.05 24.05Z" id="a6wtUVLLAJ"></path><path d="M50.99 24.05C54.89 24.05 58.06 27.22 58.06 31.13C58.06 32.83 58.06 30.84 58.06 32.54C58.06 36.45 54.89 39.62 50.99 39.62C49.57 39.62 52.4 39.62 50.99 39.62C47.08 39.62 43.91 36.45 43.91 32.54C43.91 30.84 43.91 32.83 43.91 31.13C43.91 27.22 47.08 24.05 50.99 24.05C52.4 24.05 49.57 24.05 50.99 24.05Z" id="d2PULfkSUm"></path><path d="M69.89 24.05C73.8 24.05 76.97 27.22 76.97 31.13C76.97 32.83 76.97 30.84 76.97 32.54C76.97 36.45 73.8 39.62 69.89 39.62C68.48 39.62 71.31 39.62 69.89 39.62C65.99 39.62 62.82 36.45 62.82 32.54C62.82 30.84 62.82 32.83 62.82 31.13C62.82 27.22 65.99 24.05 69.89 24.05C71.31 24.05 68.48 24.05 69.89 24.05Z" id="a6NpIhdJKz"></path><path d="M90.83 24.05C94.74 24.05 97.91 27.22 97.91 31.13C97.91 32.83 97.91 30.84 97.91 32.54C97.91 36.45 94.74 39.62 90.83 39.62C89.42 39.62 92.25 39.62 90.83 39.62C86.92 39.62 83.75 36.45 83.75 32.54C83.75 30.84 83.75 32.83 83.75 31.13C83.75 27.22 86.92 24.05 90.83 24.05C92.25 24.05 89.42 24.05 90.83 24.05Z" id="c6ezfYQGO"></path><path d="M109.74 24.05C113.64 24.05 116.81 27.22 116.81 31.13C116.81 32.83 116.81 30.84 116.81 32.54C116.81 36.45 113.64 39.62 109.74 39.62C108.32 39.62 111.15 39.62 109.74 39.62C105.83 39.62 102.66 36.45 102.66 32.54C102.66 30.84 102.66 32.83 102.66 31.13C102.66 27.22 105.83 24.05 109.74 24.05C111.15 24.05 108.32 24.05 109.74 24.05Z" id="a1nEPUDUMR"></path><path d="M129.67 24.05C133.58 24.05 136.75 27.22 136.75 31.13C136.75 32.83 136.75 30.84 136.75 32.54C136.75 36.45 133.58 39.62 129.67 39.62C128.26 39.62 131.09 39.62 129.67 39.62C125.77 39.62 122.6 36.45 122.6 32.54C122.6 30.84 122.6 32.83 122.6 31.13C122.6 27.22 125.77 24.05 129.67 24.05C131.09 24.05 128.26 24.05 129.67 24.05Z" id="f368aorTC"></path><path d="M148.58 24.05C152.49 24.05 155.66 27.22 155.66 31.13C155.66 32.83 155.66 30.84 155.66 32.54C155.66 36.45 152.49 39.62 148.58 39.62C147.17 39.62 150 39.62 148.58 39.62C144.67 39.62 141.5 36.45 141.5 32.54C141.5 30.84 141.5 32.83 141.5 31.13C141.5 27.22 144.67 24.05 148.58 24.05C150 24.05 147.17 24.05 148.58 24.05Z" id="i1y2li2y5j"></path><path d="M169.52 24.05C173.43 24.05 176.59 27.22 176.59 31.13C176.59 32.83 176.59 30.84 176.59 32.54C176.59 36.45 173.43 39.62 169.52 39.62C168.1 39.62 170.93 39.62 169.52 39.62C165.61 39.62 162.44 36.45 162.44 32.54C162.44 30.84 162.44 32.83 162.44 31.13C162.44 27.22 165.61 24.05 169.52 24.05C170.93 24.05 168.1 24.05 169.52 24.05Z" id="a1JlOzuk1"></path><path d="M189.42 24.05C193.33 24.05 196.5 27.22 196.5 31.13C196.5 32.83 196.5 30.84 196.5 32.54C196.5 36.45 193.33 39.62 189.42 39.62C188.01 39.62 190.84 39.62 189.42 39.62C185.52 39.62 182.35 36.45 182.35 32.54C182.35 30.84 182.35 32.83 182.35 31.13C182.35 27.22 185.52 24.05 189.42 24.05C190.84 24.05 188.01 24.05 189.42 24.05Z" id="j3tXkRKFj"></path><path d="M209.36 24.05C213.27 24.05 216.44 27.22 216.44 31.13C216.44 32.83 216.44 30.84 216.44 32.54C216.44 36.45 213.27 39.62 209.36 39.62C207.95 39.62 210.78 39.62 209.36 39.62C205.45 39.62 202.29 36.45 202.29 32.54C202.29 30.84 202.29 32.83 202.29 31.13C202.29 27.22 205.45 24.05 209.36 24.05C210.78 24.05 207.95 24.05 209.36 24.05Z" id="a7QDhD8d1"></path><path d="M228.27 24.05C232.18 24.05 235.34 27.22 235.34 31.13C235.34 32.83 235.34 30.84 235.34 32.54C235.34 36.45 232.18 39.62 228.27 39.62C226.85 39.62 229.68 39.62 228.27 39.62C224.36 39.62 221.19 36.45 221.19 32.54C221.19 30.84 221.19 32.83 221.19 31.13C221.19 27.22 224.36 24.05 228.27 24.05C229.68 24.05 226.85 24.05 228.27 24.05Z" id="b1d3ObLBFT"></path><path d="M247.21 24.05C251.11 24.05 254.28 27.22 254.28 31.13C254.28 32.83 254.28 30.84 254.28 32.54C254.28 36.45 251.11 39.62 247.21 39.62C245.79 39.62 248.62 39.62 247.21 39.62C243.3 39.62 240.13 36.45 240.13 32.54C240.13 30.84 240.13 32.83 240.13 31.13C240.13 27.22 243.3 24.05 247.21 24.05C248.62 24.05 245.79 24.05 247.21 24.05Z" id="cRzTOXHo6"></path><path d="M11.14 44.05C15.05 44.05 18.22 47.22 18.22 51.13C18.22 52.83 18.22 50.84 18.22 52.54C18.22 56.45 15.05 59.62 11.14 59.62C9.73 59.62 12.56 59.62 11.14 59.62C7.24 59.62 4.07 56.45 4.07 52.54C4.07 50.84 4.07 52.83 4.07 51.13C4.07 47.22 7.24 44.05 11.14 44.05C12.56 44.05 9.73 44.05 11.14 44.05Z" id="a12P0QMsFs"></path><path d="M30.05 44.05C33.96 44.05 37.13 47.22 37.13 51.13C37.13 52.83 37.13 50.84 37.13 52.54C37.13 56.45 33.96 59.62 30.05 59.62C28.63 59.62 31.46 59.62 30.05 59.62C26.14 59.62 22.97 56.45 22.97 52.54C22.97 50.84 22.97 52.83 22.97 51.13C22.97 47.22 26.14 44.05 30.05 44.05C31.46 44.05 28.63 44.05 30.05 44.05Z" id="bOYH3N4RN"></path><path d="M50.99 44.05C54.89 44.05 58.06 47.22 58.06 51.13C58.06 52.83 58.06 50.84 58.06 52.54C58.06 56.45 54.89 59.62 50.99 59.62C49.57 59.62 52.4 59.62 50.99 59.62C47.08 59.62 43.91 56.45 43.91 52.54C43.91 50.84 43.91 52.83 43.91 51.13C43.91 47.22 47.08 44.05 50.99 44.05C52.4 44.05 49.57 44.05 50.99 44.05Z" id="aKpxgD4h2"></path><path d="M69.89 44.05C73.8 44.05 76.97 47.22 76.97 51.13C76.97 52.83 76.97 50.84 76.97 52.54C76.97 56.45 73.8 59.62 69.89 59.62C68.48 59.62 71.31 59.62 69.89 59.62C65.99 59.62 62.82 56.45 62.82 52.54C62.82 50.84 62.82 52.83 62.82 51.13C62.82 47.22 65.99 44.05 69.89 44.05C71.31 44.05 68.48 44.05 69.89 44.05Z" id="aWvtSQtPs"></path><path d="M90.83 44.05C94.74 44.05 97.91 47.22 97.91 51.13C97.91 52.83 97.91 50.84 97.91 52.54C97.91 56.45 94.74 59.62 90.83 59.62C89.42 59.62 92.25 59.62 90.83 59.62C86.92 59.62 83.75 56.45 83.75 52.54C83.75 50.84 83.75 52.83 83.75 51.13C83.75 47.22 86.92 44.05 90.83 44.05C92.25 44.05 89.42 44.05 90.83 44.05Z" id="lsfTKJXNL"></path><path d="M109.74 44.05C113.64 44.05 116.81 47.22 116.81 51.13C116.81 52.83 116.81 50.84 116.81 52.54C116.81 56.45 113.64 59.62 109.74 59.62C108.32 59.62 111.15 59.62 109.74 59.62C105.83 59.62 102.66 56.45 102.66 52.54C102.66 50.84 102.66 52.83 102.66 51.13C102.66 47.22 105.83 44.05 109.74 44.05C111.15 44.05 108.32 44.05 109.74 44.05Z" id="a2HIsi8CbM"></path><path d="M129.67 44.05C133.58 44.05 136.75 47.22 136.75 51.13C136.75 52.83 136.75 50.84 136.75 52.54C136.75 56.45 133.58 59.62 129.67 59.62C128.26 59.62 131.09 59.62 129.67 59.62C125.77 59.62 122.6 56.45 122.6 52.54C122.6 50.84 122.6 52.83 122.6 51.13C122.6 47.22 125.77 44.05 129.67 44.05C131.09 44.05 128.26 44.05 129.67 44.05Z" id="i4CZlQscw0"></path><path d="M148.58 44.05C152.49 44.05 155.66 47.22 155.66 51.13C155.66 52.83 155.66 50.84 155.66 52.54C155.66 56.45 152.49 59.62 148.58 59.62C147.17 59.62 150 59.62 148.58 59.62C144.67 59.62 141.5 56.45 141.5 52.54C141.5 50.84 141.5 52.83 141.5 51.13C141.5 47.22 144.67 44.05 148.58 44.05C150 44.05 147.17 44.05 148.58 44.05Z" id="c1MCGslL1k"></path><path d="M169.52 44.05C173.43 44.05 176.59 47.22 176.59 51.13C176.59 52.83 176.59 50.84 176.59 52.54C176.59 56.45 173.43 59.62 169.52 59.62C168.1 59.62 170.93 59.62 169.52 59.62C165.61 59.62 162.44 56.45 162.44 52.54C162.44 50.84 162.44 52.83 162.44 51.13C162.44 47.22 165.61 44.05 169.52 44.05C170.93 44.05 168.1 44.05 169.52 44.05Z" id="c4lIvwEJF"></path><path d="M189.42 44.05C193.33 44.05 196.5 47.22 196.5 51.13C196.5 52.83 196.5 50.84 196.5 52.54C196.5 56.45 193.33 59.62 189.42 59.62C188.01 59.62 190.84 59.62 189.42 59.62C185.52 59.62 182.35 56.45 182.35 52.54C182.35 50.84 182.35 52.83 182.35 51.13C182.35 47.22 185.52 44.05 189.42 44.05C190.84 44.05 188.01 44.05 189.42 44.05Z" id="a3SWCysTAd"></path><path d="M209.36 44.05C213.27 44.05 216.44 47.22 216.44 51.13C216.44 52.83 216.44 50.84 216.44 52.54C216.44 56.45 213.27 59.62 209.36 59.62C207.95 59.62 210.78 59.62 209.36 59.62C205.45 59.62 202.29 56.45 202.29 52.54C202.29 50.84 202.29 52.83 202.29 51.13C202.29 47.22 205.45 44.05 209.36 44.05C210.78 44.05 207.95 44.05 209.36 44.05Z" id="f8BfFIKHV"></path><path d="M228.27 44.05C232.18 44.05 235.34 47.22 235.34 51.13C235.34 52.83 235.34 50.84 235.34 52.54C235.34 56.45 232.18 59.62 228.27 59.62C226.85 59.62 229.68 59.62 228.27 59.62C224.36 59.62 221.19 56.45 221.19 52.54C221.19 50.84 221.19 52.83 221.19 51.13C221.19 47.22 224.36 44.05 228.27 44.05C229.68 44.05 226.85 44.05 228.27 44.05Z" id="lg7RLEygu"></path><path d="M247.21 44.05C251.11 44.05 254.28 47.22 254.28 51.13C254.28 52.83 254.28 50.84 254.28 52.54C254.28 56.45 251.11 59.62 247.21 59.62C245.79 59.62 248.62 59.62 247.21 59.62C243.3 59.62 240.13 56.45 240.13 52.54C240.13 50.84 240.13 52.83 240.13 51.13C240.13 47.22 243.3 44.05 247.21 44.05C248.62 44.05 245.79 44.05 247.21 44.05Z" id="b5eEQzxa0"></path><path d="M11.14 64.05C15.05 64.05 18.22 67.22 18.22 71.13C18.22 72.83 18.22 70.84 18.22 72.54C18.22 76.45 15.05 79.62 11.14 79.62C9.73 79.62 12.56 79.62 11.14 79.62C7.24 79.62 4.07 76.45 4.07 72.54C4.07 70.84 4.07 72.83 4.07 71.13C4.07 67.22 7.24 64.05 11.14 64.05C12.56 64.05 9.73 64.05 11.14 64.05Z" id="c87TAibMI"></path><path d="M30.05 64.05C33.96 64.05 37.13 67.22 37.13 71.13C37.13 72.83 37.13 70.84 37.13 72.54C37.13 76.45 33.96 79.62 30.05 79.62C28.63 79.62 31.46 79.62 30.05 79.62C26.14 79.62 22.97 76.45 22.97 72.54C22.97 70.84 22.97 72.83 22.97 71.13C22.97 67.22 26.14 64.05 30.05 64.05C31.46 64.05 28.63 64.05 30.05 64.05Z" id="a26CWCuUl"></path><path d="M50.99 64.05C54.89 64.05 58.06 67.22 58.06 71.13C58.06 72.83 58.06 70.84 58.06 72.54C58.06 76.45 54.89 79.62 50.99 79.62C49.57 79.62 52.4 79.62 50.99 79.62C47.08 79.62 43.91 76.45 43.91 72.54C43.91 70.84 43.91 72.83 43.91 71.13C43.91 67.22 47.08 64.05 50.99 64.05C52.4 64.05 49.57 64.05 50.99 64.05Z" id="b28642q0b9"></path><path d="M69.89 64.05C73.8 64.05 76.97 67.22 76.97 71.13C76.97 72.83 76.97 70.84 76.97 72.54C76.97 76.45 73.8 79.62 69.89 79.62C68.48 79.62 71.31 79.62 69.89 79.62C65.99 79.62 62.82 76.45 62.82 72.54C62.82 70.84 62.82 72.83 62.82 71.13C62.82 67.22 65.99 64.05 69.89 64.05C71.31 64.05 68.48 64.05 69.89 64.05Z" id="c4TgvUVh0p"></path><path d="M90.83 64.05C94.74 64.05 97.91 67.22 97.91 71.13C97.91 72.83 97.91 70.84 97.91 72.54C97.91 76.45 94.74 79.62 90.83 79.62C89.42 79.62 92.25 79.62 90.83 79.62C86.92 79.62 83.75 76.45 83.75 72.54C83.75 70.84 83.75 72.83 83.75 71.13C83.75 67.22 86.92 64.05 90.83 64.05C92.25 64.05 89.42 64.05 90.83 64.05Z" id="b2xdhcCJPl"></path><path d="M109.74 64.05C113.64 64.05 116.81 67.22 116.81 71.13C116.81 72.83 116.81 70.84 116.81 72.54C116.81 76.45 113.64 79.62 109.74 79.62C108.32 79.62 111.15 79.62 109.74 79.62C105.83 79.62 102.66 76.45 102.66 72.54C102.66 70.84 102.66 72.83 102.66 71.13C102.66 67.22 105.83 64.05 109.74 64.05C111.15 64.05 108.32 64.05 109.74 64.05Z" id="a2bfi4Lzl"></path><path d="M129.67 64.05C133.58 64.05 136.75 67.22 136.75 71.13C136.75 72.83 136.75 70.84 136.75 72.54C136.75 76.45 133.58 79.62 129.67 79.62C128.26 79.62 131.09 79.62 129.67 79.62C125.77 79.62 122.6 76.45 122.6 72.54C122.6 70.84 122.6 72.83 122.6 71.13C122.6 67.22 125.77 64.05 129.67 64.05C131.09 64.05 128.26 64.05 129.67 64.05Z" id="d6FHtALpn7"></path><path d="M148.58 64.05C152.49 64.05 155.66 67.22 155.66 71.13C155.66 72.83 155.66 70.84 155.66 72.54C155.66 76.45 152.49 79.62 148.58 79.62C147.17 79.62 150 79.62 148.58 79.62C144.67 79.62 141.5 76.45 141.5 72.54C141.5 70.84 141.5 72.83 141.5 71.13C141.5 67.22 144.67 64.05 148.58 64.05C150 64.05 147.17 64.05 148.58 64.05Z" id="j2FbYe8VBd"></path><path d="M169.52 64.05C173.43 64.05 176.59 67.22 176.59 71.13C176.59 72.83 176.59 70.84 176.59 72.54C176.59 76.45 173.43 79.62 169.52 79.62C168.1 79.62 170.93 79.62 169.52 79.62C165.61 79.62 162.44 76.45 162.44 72.54C162.44 70.84 162.44 72.83 162.44 71.13C162.44 67.22 165.61 64.05 169.52 64.05C170.93 64.05 168.1 64.05 169.52 64.05Z" id="csWShrMbt"></path><path d="M189.42 64.05C193.33 64.05 196.5 67.22 196.5 71.13C196.5 72.83 196.5 70.84 196.5 72.54C196.5 76.45 193.33 79.62 189.42 79.62C188.01 79.62 190.84 79.62 189.42 79.62C185.52 79.62 182.35 76.45 182.35 72.54C182.35 70.84 182.35 72.83 182.35 71.13C182.35 67.22 185.52 64.05 189.42 64.05C190.84 64.05 188.01 64.05 189.42 64.05Z" id="aP0cRdQp4"></path><path d="M209.36 64.05C213.27 64.05 216.44 67.22 216.44 71.13C216.44 72.83 216.44 70.84 216.44 72.54C216.44 76.45 213.27 79.62 209.36 79.62C207.95 79.62 210.78 79.62 209.36 79.62C205.45 79.62 202.29 76.45 202.29 72.54C202.29 70.84 202.29 72.83 202.29 71.13C202.29 67.22 205.45 64.05 209.36 64.05C210.78 64.05 207.95 64.05 209.36 64.05Z" id="c2ajOHLi9u"></path><path d="M228.27 64.05C232.18 64.05 235.34 67.22 235.34 71.13C235.34 72.83 235.34 70.84 235.34 72.54C235.34 76.45 232.18 79.62 228.27 79.62C226.85 79.62 229.68 79.62 228.27 79.62C224.36 79.62 221.19 76.45 221.19 72.54C221.19 70.84 221.19 72.83 221.19 71.13C221.19 67.22 224.36 64.05 228.27 64.05C229.68 64.05 226.85 64.05 228.27 64.05Z" id="a8PikgZhCv"></path><path d="M247.21 64.05C251.11 64.05 254.28 67.22 254.28 71.13C254.28 72.83 254.28 70.84 254.28 72.54C254.28 76.45 251.11 79.62 247.21 79.62C245.79 79.62 248.62 79.62 247.21 79.62C243.3 79.62 240.13 76.45 240.13 72.54C240.13 70.84 240.13 72.83 240.13 71.13C240.13 67.22 243.3 64.05 247.21 64.05C248.62 64.05 245.79 64.05 247.21 64.05Z" id="h1XX7XXF4X"></path><path d="M11.14 84.05C15.05 84.05 18.22 87.22 18.22 91.13C18.22 92.83 18.22 90.84 18.22 92.54C18.22 96.45 15.05 99.62 11.14 99.62C9.73 99.62 12.56 99.62 11.14 99.62C7.24 99.62 4.07 96.45 4.07 92.54C4.07 90.84 4.07 92.83 4.07 91.13C4.07 87.22 7.24 84.05 11.14 84.05C12.56 84.05 9.73 84.05 11.14 84.05Z" id="c1PfHqdAb"></path><path d="M30.05 84.05C33.96 84.05 37.13 87.22 37.13 91.13C37.13 92.83 37.13 90.84 37.13 92.54C37.13 96.45 33.96 99.62 30.05 99.62C28.63 99.62 31.46 99.62 30.05 99.62C26.14 99.62 22.97 96.45 22.97 92.54C22.97 90.84 22.97 92.83 22.97 91.13C22.97 87.22 26.14 84.05 30.05 84.05C31.46 84.05 28.63 84.05 30.05 84.05Z" id="b5vfQUXnxN"></path><path d="M50.99 84.05C54.89 84.05 58.06 87.22 58.06 91.13C58.06 92.83 58.06 90.84 58.06 92.54C58.06 96.45 54.89 99.62 50.99 99.62C49.57 99.62 52.4 99.62 50.99 99.62C47.08 99.62 43.91 96.45 43.91 92.54C43.91 90.84 43.91 92.83 43.91 91.13C43.91 87.22 47.08 84.05 50.99 84.05C52.4 84.05 49.57 84.05 50.99 84.05Z" id="dCk70JhgO"></path><path d="M69.89 84.05C73.8 84.05 76.97 87.22 76.97 91.13C76.97 92.83 76.97 90.84 76.97 92.54C76.97 96.45 73.8 99.62 69.89 99.62C68.48 99.62 71.31 99.62 69.89 99.62C65.99 99.62 62.82 96.45 62.82 92.54C62.82 90.84 62.82 92.83 62.82 91.13C62.82 87.22 65.99 84.05 69.89 84.05C71.31 84.05 68.48 84.05 69.89 84.05Z" id="cbDvuIXIw"></path><path d="M90.83 84.05C94.74 84.05 97.91 87.22 97.91 91.13C97.91 92.83 97.91 90.84 97.91 92.54C97.91 96.45 94.74 99.62 90.83 99.62C89.42 99.62 92.25 99.62 90.83 99.62C86.92 99.62 83.75 96.45 83.75 92.54C83.75 90.84 83.75 92.83 83.75 91.13C83.75 87.22 86.92 84.05 90.83 84.05C92.25 84.05 89.42 84.05 90.83 84.05Z" id="a3mooW99M"></path><path d="M109.74 84.05C113.64 84.05 116.81 87.22 116.81 91.13C116.81 92.83 116.81 90.84 116.81 92.54C116.81 96.45 113.64 99.62 109.74 99.62C108.32 99.62 111.15 99.62 109.74 99.62C105.83 99.62 102.66 96.45 102.66 92.54C102.66 90.84 102.66 92.83 102.66 91.13C102.66 87.22 105.83 84.05 109.74 84.05C111.15 84.05 108.32 84.05 109.74 84.05Z" id="d1J3fq4PRU"></path><path d="M129.67 84.05C133.58 84.05 136.75 87.22 136.75 91.13C136.75 92.83 136.75 90.84 136.75 92.54C136.75 96.45 133.58 99.62 129.67 99.62C128.26 99.62 131.09 99.62 129.67 99.62C125.77 99.62 122.6 96.45 122.6 92.54C122.6 90.84 122.6 92.83 122.6 91.13C122.6 87.22 125.77 84.05 129.67 84.05C131.09 84.05 128.26 84.05 129.67 84.05Z" id="b4et2HAdBw"></path><path d="M148.58 84.05C152.49 84.05 155.66 87.22 155.66 91.13C155.66 92.83 155.66 90.84 155.66 92.54C155.66 96.45 152.49 99.62 148.58 99.62C147.17 99.62 150 99.62 148.58 99.62C144.67 99.62 141.5 96.45 141.5 92.54C141.5 90.84 141.5 92.83 141.5 91.13C141.5 87.22 144.67 84.05 148.58 84.05C150 84.05 147.17 84.05 148.58 84.05Z" id="aAFlX3sLF"></path><path d="M169.52 84.05C173.43 84.05 176.59 87.22 176.59 91.13C176.59 92.83 176.59 90.84 176.59 92.54C176.59 96.45 173.43 99.62 169.52 99.62C168.1 99.62 170.93 99.62 169.52 99.62C165.61 99.62 162.44 96.45 162.44 92.54C162.44 90.84 162.44 92.83 162.44 91.13C162.44 87.22 165.61 84.05 169.52 84.05C170.93 84.05 168.1 84.05 169.52 84.05Z" id="c7MV2DtMRO"></path><path d="M189.42 84.05C193.33 84.05 196.5 87.22 196.5 91.13C196.5 92.83 196.5 90.84 196.5 92.54C196.5 96.45 193.33 99.62 189.42 99.62C188.01 99.62 190.84 99.62 189.42 99.62C185.52 99.62 182.35 96.45 182.35 92.54C182.35 90.84 182.35 92.83 182.35 91.13C182.35 87.22 185.52 84.05 189.42 84.05C190.84 84.05 188.01 84.05 189.42 84.05Z" id="b4Z5tfazUW"></path><path d="M209.36 84.05C213.27 84.05 216.44 87.22 216.44 91.13C216.44 92.83 216.44 90.84 216.44 92.54C216.44 96.45 213.27 99.62 209.36 99.62C207.95 99.62 210.78 99.62 209.36 99.62C205.45 99.62 202.29 96.45 202.29 92.54C202.29 90.84 202.29 92.83 202.29 91.13C202.29 87.22 205.45 84.05 209.36 84.05C210.78 84.05 207.95 84.05 209.36 84.05Z" id="eAa1Up9W0"></path><path d="M228.27 84.05C232.18 84.05 235.34 87.22 235.34 91.13C235.34 92.83 235.34 90.84 235.34 92.54C235.34 96.45 232.18 99.62 228.27 99.62C226.85 99.62 229.68 99.62 228.27 99.62C224.36 99.62 221.19 96.45 221.19 92.54C221.19 90.84 221.19 92.83 221.19 91.13C221.19 87.22 224.36 84.05 228.27 84.05C229.68 84.05 226.85 84.05 228.27 84.05Z" id="c8TczDnZoj"></path><path d="M247.21 84.05C251.11 84.05 254.28 87.22 254.28 91.13C254.28 92.83 254.28 90.84 254.28 92.54C254.28 96.45 251.11 99.62 247.21 99.62C245.79 99.62 248.62 99.62 247.21 99.62C243.3 99.62 240.13 96.45 240.13 92.54C240.13 90.84 240.13 92.83 240.13 91.13C240.13 87.22 243.3 84.05 247.21 84.05C248.62 84.05 245.79 84.05 247.21 84.05Z" id="baKNkTH4b"></path><path d="M11.14 104.05C15.05 104.05 18.22 107.22 18.22 111.13C18.22 112.83 18.22 110.84 18.22 112.54C18.22 116.45 15.05 119.62 11.14 119.62C9.73 119.62 12.56 119.62 11.14 119.62C7.24 119.62 4.07 116.45 4.07 112.54C4.07 110.84 4.07 112.83 4.07 111.13C4.07 107.22 7.24 104.05 11.14 104.05C12.56 104.05 9.73 104.05 11.14 104.05Z" id="f2E2UurHg0"></path><path d="M30.05 104.05C33.96 104.05 37.13 107.22 37.13 111.13C37.13 112.83 37.13 110.84 37.13 112.54C37.13 116.45 33.96 119.62 30.05 119.62C28.63 119.62 31.46 119.62 30.05 119.62C26.14 119.62 22.97 116.45 22.97 112.54C22.97 110.84 22.97 112.83 22.97 111.13C22.97 107.22 26.14 104.05 30.05 104.05C31.46 104.05 28.63 104.05 30.05 104.05Z" id="bfHO5OG3A"></path><path d="M50.99 104.05C54.89 104.05 58.06 107.22 58.06 111.13C58.06 112.83 58.06 110.84 58.06 112.54C58.06 116.45 54.89 119.62 50.99 119.62C49.57 119.62 52.4 119.62 50.99 119.62C47.08 119.62 43.91 116.45 43.91 112.54C43.91 110.84 43.91 112.83 43.91 111.13C43.91 107.22 47.08 104.05 50.99 104.05C52.4 104.05 49.57 104.05 50.99 104.05Z" id="d1G0rBA1I"></path><path d="M69.89 104.05C73.8 104.05 76.97 107.22 76.97 111.13C76.97 112.83 76.97 110.84 76.97 112.54C76.97 116.45 73.8 119.62 69.89 119.62C68.48 119.62 71.31 119.62 69.89 119.62C65.99 119.62 62.82 116.45 62.82 112.54C62.82 110.84 62.82 112.83 62.82 111.13C62.82 107.22 65.99 104.05 69.89 104.05C71.31 104.05 68.48 104.05 69.89 104.05Z" id="b1miaddeN0"></path><path d="M90.83 104.05C94.74 104.05 97.91 107.22 97.91 111.13C97.91 112.83 97.91 110.84 97.91 112.54C97.91 116.45 94.74 119.62 90.83 119.62C89.42 119.62 92.25 119.62 90.83 119.62C86.92 119.62 83.75 116.45 83.75 112.54C83.75 110.84 83.75 112.83 83.75 111.13C83.75 107.22 86.92 104.05 90.83 104.05C92.25 104.05 89.42 104.05 90.83 104.05Z" id="i1qUVOP6dQ"></path><path d="M109.74 104.05C113.64 104.05 116.81 107.22 116.81 111.13C116.81 112.83 116.81 110.84 116.81 112.54C116.81 116.45 113.64 119.62 109.74 119.62C108.32 119.62 111.15 119.62 109.74 119.62C105.83 119.62 102.66 116.45 102.66 112.54C102.66 110.84 102.66 112.83 102.66 111.13C102.66 107.22 105.83 104.05 109.74 104.05C111.15 104.05 108.32 104.05 109.74 104.05Z" id="c1cJI9xkYq"></path><path d="M129.67 104.05C133.58 104.05 136.75 107.22 136.75 111.13C136.75 112.83 136.75 110.84 136.75 112.54C136.75 116.45 133.58 119.62 129.67 119.62C128.26 119.62 131.09 119.62 129.67 119.62C125.77 119.62 122.6 116.45 122.6 112.54C122.6 110.84 122.6 112.83 122.6 111.13C122.6 107.22 125.77 104.05 129.67 104.05C131.09 104.05 128.26 104.05 129.67 104.05Z" id="b1pZcbpQCz"></path><path d="M148.58 104.05C152.49 104.05 155.66 107.22 155.66 111.13C155.66 112.83 155.66 110.84 155.66 112.54C155.66 116.45 152.49 119.62 148.58 119.62C147.17 119.62 150 119.62 148.58 119.62C144.67 119.62 141.5 116.45 141.5 112.54C141.5 110.84 141.5 112.83 141.5 111.13C141.5 107.22 144.67 104.05 148.58 104.05C150 104.05 147.17 104.05 148.58 104.05Z" id="g1HJu1nCXb"></path><path d="M169.52 104.05C173.43 104.05 176.59 107.22 176.59 111.13C176.59 112.83 176.59 110.84 176.59 112.54C176.59 116.45 173.43 119.62 169.52 119.62C168.1 119.62 170.93 119.62 169.52 119.62C165.61 119.62 162.44 116.45 162.44 112.54C162.44 110.84 162.44 112.83 162.44 111.13C162.44 107.22 165.61 104.05 169.52 104.05C170.93 104.05 168.1 104.05 169.52 104.05Z" id="dbiKzRHbx"></path><path d="M189.42 104.05C193.33 104.05 196.5 107.22 196.5 111.13C196.5 112.83 196.5 110.84 196.5 112.54C196.5 116.45 193.33 119.62 189.42 119.62C188.01 119.62 190.84 119.62 189.42 119.62C185.52 119.62 182.35 116.45 182.35 112.54C182.35 110.84 182.35 112.83 182.35 111.13C182.35 107.22 185.52 104.05 189.42 104.05C190.84 104.05 188.01 104.05 189.42 104.05Z" id="aSlpSkg9w"></path><path d="M209.36 104.05C213.27 104.05 216.44 107.22 216.44 111.13C216.44 112.83 216.44 110.84 216.44 112.54C216.44 116.45 213.27 119.62 209.36 119.62C207.95 119.62 210.78 119.62 209.36 119.62C205.45 119.62 202.29 116.45 202.29 112.54C202.29 110.84 202.29 112.83 202.29 111.13C202.29 107.22 205.45 104.05 209.36 104.05C210.78 104.05 207.95 104.05 209.36 104.05Z" id="cqErPVsss"></path><path d="M228.27 104.05C232.18 104.05 235.34 107.22 235.34 111.13C235.34 112.83 235.34 110.84 235.34 112.54C235.34 116.45 232.18 119.62 228.27 119.62C226.85 119.62 229.68 119.62 228.27 119.62C224.36 119.62 221.19 116.45 221.19 112.54C221.19 110.84 221.19 112.83 221.19 111.13C221.19 107.22 224.36 104.05 228.27 104.05C229.68 104.05 226.85 104.05 228.27 104.05Z" id="bOiWxtRJh"></path><path d="M247.21 104.05C251.11 104.05 254.28 107.22 254.28 111.13C254.28 112.83 254.28 110.84 254.28 112.54C254.28 116.45 251.11 119.62 247.21 119.62C245.79 119.62 248.62 119.62 247.21 119.62C243.3 119.62 240.13 116.45 240.13 112.54C240.13 110.84 240.13 112.83 240.13 111.13C240.13 107.22 243.3 104.05 247.21 104.05C248.62 104.05 245.79 104.05 247.21 104.05Z" id="b63WDVEH5v"></path><path d="M11.14 124.05C15.05 124.05 18.22 127.22 18.22 131.13C18.22 132.83 18.22 130.84 18.22 132.54C18.22 136.45 15.05 139.62 11.14 139.62C9.73 139.62 12.56 139.62 11.14 139.62C7.24 139.62 4.07 136.45 4.07 132.54C4.07 130.84 4.07 132.83 4.07 131.13C4.07 127.22 7.24 124.05 11.14 124.05C12.56 124.05 9.73 124.05 11.14 124.05Z" id="eflDeNsew"></path><path d="M30.05 124.05C33.96 124.05 37.13 127.22 37.13 131.13C37.13 132.83 37.13 130.84 37.13 132.54C37.13 136.45 33.96 139.62 30.05 139.62C28.63 139.62 31.46 139.62 30.05 139.62C26.14 139.62 22.97 136.45 22.97 132.54C22.97 130.84 22.97 132.83 22.97 131.13C22.97 127.22 26.14 124.05 30.05 124.05C31.46 124.05 28.63 124.05 30.05 124.05Z" id="ceYrcmmiX"></path><path d="M50.99 124.05C54.89 124.05 58.06 127.22 58.06 131.13C58.06 132.83 58.06 130.84 58.06 132.54C58.06 136.45 54.89 139.62 50.99 139.62C49.57 139.62 52.4 139.62 50.99 139.62C47.08 139.62 43.91 136.45 43.91 132.54C43.91 130.84 43.91 132.83 43.91 131.13C43.91 127.22 47.08 124.05 50.99 124.05C52.4 124.05 49.57 124.05 50.99 124.05Z" id="f1893qjoy"></path><path d="M69.89 124.05C73.8 124.05 76.97 127.22 76.97 131.13C76.97 132.83 76.97 130.84 76.97 132.54C76.97 136.45 73.8 139.62 69.89 139.62C68.48 139.62 71.31 139.62 69.89 139.62C65.99 139.62 62.82 136.45 62.82 132.54C62.82 130.84 62.82 132.83 62.82 131.13C62.82 127.22 65.99 124.05 69.89 124.05C71.31 124.05 68.48 124.05 69.89 124.05Z" id="f1z1cN3me9"></path><path d="M90.83 124.05C94.74 124.05 97.91 127.22 97.91 131.13C97.91 132.83 97.91 130.84 97.91 132.54C97.91 136.45 94.74 139.62 90.83 139.62C89.42 139.62 92.25 139.62 90.83 139.62C86.92 139.62 83.75 136.45 83.75 132.54C83.75 130.84 83.75 132.83 83.75 131.13C83.75 127.22 86.92 124.05 90.83 124.05C92.25 124.05 89.42 124.05 90.83 124.05Z" id="icRi5HRM"></path><path d="M109.74 124.05C113.64 124.05 116.81 127.22 116.81 131.13C116.81 132.83 116.81 130.84 116.81 132.54C116.81 136.45 113.64 139.62 109.74 139.62C108.32 139.62 111.15 139.62 109.74 139.62C105.83 139.62 102.66 136.45 102.66 132.54C102.66 130.84 102.66 132.83 102.66 131.13C102.66 127.22 105.83 124.05 109.74 124.05C111.15 124.05 108.32 124.05 109.74 124.05Z" id="a1itiK72Aj"></path><path d="M129.67 124.05C133.58 124.05 136.75 127.22 136.75 131.13C136.75 132.83 136.75 130.84 136.75 132.54C136.75 136.45 133.58 139.62 129.67 139.62C128.26 139.62 131.09 139.62 129.67 139.62C125.77 139.62 122.6 136.45 122.6 132.54C122.6 130.84 122.6 132.83 122.6 131.13C122.6 127.22 125.77 124.05 129.67 124.05C131.09 124.05 128.26 124.05 129.67 124.05Z" id="e48At6EPi4"></path><path d="M148.58 124.05C152.49 124.05 155.66 127.22 155.66 131.13C155.66 132.83 155.66 130.84 155.66 132.54C155.66 136.45 152.49 139.62 148.58 139.62C147.17 139.62 150 139.62 148.58 139.62C144.67 139.62 141.5 136.45 141.5 132.54C141.5 130.84 141.5 132.83 141.5 131.13C141.5 127.22 144.67 124.05 148.58 124.05C150 124.05 147.17 124.05 148.58 124.05Z" id="a7jWSjdE3h"></path><path d="M169.52 124.05C173.43 124.05 176.59 127.22 176.59 131.13C176.59 132.83 176.59 130.84 176.59 132.54C176.59 136.45 173.43 139.62 169.52 139.62C168.1 139.62 170.93 139.62 169.52 139.62C165.61 139.62 162.44 136.45 162.44 132.54C162.44 130.84 162.44 132.83 162.44 131.13C162.44 127.22 165.61 124.05 169.52 124.05C170.93 124.05 168.1 124.05 169.52 124.05Z" id="b93lH4PRLe"></path><path d="M189.42 124.05C193.33 124.05 196.5 127.22 196.5 131.13C196.5 132.83 196.5 130.84 196.5 132.54C196.5 136.45 193.33 139.62 189.42 139.62C188.01 139.62 190.84 139.62 189.42 139.62C185.52 139.62 182.35 136.45 182.35 132.54C182.35 130.84 182.35 132.83 182.35 131.13C182.35 127.22 185.52 124.05 189.42 124.05C190.84 124.05 188.01 124.05 189.42 124.05Z" id="ctwJS2sg"></path><path d="M209.36 124.05C213.27 124.05 216.44 127.22 216.44 131.13C216.44 132.83 216.44 130.84 216.44 132.54C216.44 136.45 213.27 139.62 209.36 139.62C207.95 139.62 210.78 139.62 209.36 139.62C205.45 139.62 202.29 136.45 202.29 132.54C202.29 130.84 202.29 132.83 202.29 131.13C202.29 127.22 205.45 124.05 209.36 124.05C210.78 124.05 207.95 124.05 209.36 124.05Z" id="a3iVhRQysz"></path><path d="M228.27 124.05C232.18 124.05 235.34 127.22 235.34 131.13C235.34 132.83 235.34 130.84 235.34 132.54C235.34 136.45 232.18 139.62 228.27 139.62C226.85 139.62 229.68 139.62 228.27 139.62C224.36 139.62 221.19 136.45 221.19 132.54C221.19 130.84 221.19 132.83 221.19 131.13C221.19 127.22 224.36 124.05 228.27 124.05C229.68 124.05 226.85 124.05 228.27 124.05Z" id="cgEyS4Rv2"></path><path d="M247.21 124.05C251.11 124.05 254.28 127.22 254.28 131.13C254.28 132.83 254.28 130.84 254.28 132.54C254.28 136.45 251.11 139.62 247.21 139.62C245.79 139.62 248.62 139.62 247.21 139.62C243.3 139.62 240.13 136.45 240.13 132.54C240.13 130.84 240.13 132.83 240.13 131.13C240.13 127.22 243.3 124.05 247.21 124.05C248.62 124.05 245.79 124.05 247.21 124.05Z" id="i2hyaIgzJe"></path><path d="M11.14 144.05C15.05 144.05 18.22 147.22 18.22 151.13C18.22 152.83 18.22 150.84 18.22 152.54C18.22 156.45 15.05 159.62 11.14 159.62C9.73 159.62 12.56 159.62 11.14 159.62C7.24 159.62 4.07 156.45 4.07 152.54C4.07 150.84 4.07 152.83 4.07 151.13C4.07 147.22 7.24 144.05 11.14 144.05C12.56 144.05 9.73 144.05 11.14 144.05Z" id="ejnMYuXSe"></path><path d="M30.05 144.05C33.96 144.05 37.13 147.22 37.13 151.13C37.13 152.83 37.13 150.84 37.13 152.54C37.13 156.45 33.96 159.62 30.05 159.62C28.63 159.62 31.46 159.62 30.05 159.62C26.14 159.62 22.97 156.45 22.97 152.54C22.97 150.84 22.97 152.83 22.97 151.13C22.97 147.22 26.14 144.05 30.05 144.05C31.46 144.05 28.63 144.05 30.05 144.05Z" id="cbB5NLV8B"></path><path d="M50.99 144.05C54.89 144.05 58.06 147.22 58.06 151.13C58.06 152.83 58.06 150.84 58.06 152.54C58.06 156.45 54.89 159.62 50.99 159.62C49.57 159.62 52.4 159.62 50.99 159.62C47.08 159.62 43.91 156.45 43.91 152.54C43.91 150.84 43.91 152.83 43.91 151.13C43.91 147.22 47.08 144.05 50.99 144.05C52.4 144.05 49.57 144.05 50.99 144.05Z" id="e1qAgNo4jt"></path><path d="M69.89 144.05C73.8 144.05 76.97 147.22 76.97 151.13C76.97 152.83 76.97 150.84 76.97 152.54C76.97 156.45 73.8 159.62 69.89 159.62C68.48 159.62 71.31 159.62 69.89 159.62C65.99 159.62 62.82 156.45 62.82 152.54C62.82 150.84 62.82 152.83 62.82 151.13C62.82 147.22 65.99 144.05 69.89 144.05C71.31 144.05 68.48 144.05 69.89 144.05Z" id="a1u2s96Juk"></path><path d="M90.83 144.05C94.74 144.05 97.91 147.22 97.91 151.13C97.91 152.83 97.91 150.84 97.91 152.54C97.91 156.45 94.74 159.62 90.83 159.62C89.42 159.62 92.25 159.62 90.83 159.62C86.92 159.62 83.75 156.45 83.75 152.54C83.75 150.84 83.75 152.83 83.75 151.13C83.75 147.22 86.92 144.05 90.83 144.05C92.25 144.05 89.42 144.05 90.83 144.05Z" id="a1dL3yj69t"></path><path d="M109.74 144.05C113.64 144.05 116.81 147.22 116.81 151.13C116.81 152.83 116.81 150.84 116.81 152.54C116.81 156.45 113.64 159.62 109.74 159.62C108.32 159.62 111.15 159.62 109.74 159.62C105.83 159.62 102.66 156.45 102.66 152.54C102.66 150.84 102.66 152.83 102.66 151.13C102.66 147.22 105.83 144.05 109.74 144.05C111.15 144.05 108.32 144.05 109.74 144.05Z" id="eZrIqQb9Y"></path><path d="M129.67 144.05C133.58 144.05 136.75 147.22 136.75 151.13C136.75 152.83 136.75 150.84 136.75 152.54C136.75 156.45 133.58 159.62 129.67 159.62C128.26 159.62 131.09 159.62 129.67 159.62C125.77 159.62 122.6 156.45 122.6 152.54C122.6 150.84 122.6 152.83 122.6 151.13C122.6 147.22 125.77 144.05 129.67 144.05C131.09 144.05 128.26 144.05 129.67 144.05Z" id="b7A8WZy4kK"></path><path d="M148.58 144.05C152.49 144.05 155.66 147.22 155.66 151.13C155.66 152.83 155.66 150.84 155.66 152.54C155.66 156.45 152.49 159.62 148.58 159.62C147.17 159.62 150 159.62 148.58 159.62C144.67 159.62 141.5 156.45 141.5 152.54C141.5 150.84 141.5 152.83 141.5 151.13C141.5 147.22 144.67 144.05 148.58 144.05C150 144.05 147.17 144.05 148.58 144.05Z" id="f1GNdu0elf"></path><path d="M169.52 144.05C173.43 144.05 176.59 147.22 176.59 151.13C176.59 152.83 176.59 150.84 176.59 152.54C176.59 156.45 173.43 159.62 169.52 159.62C168.1 159.62 170.93 159.62 169.52 159.62C165.61 159.62 162.44 156.45 162.44 152.54C162.44 150.84 162.44 152.83 162.44 151.13C162.44 147.22 165.61 144.05 169.52 144.05C170.93 144.05 168.1 144.05 169.52 144.05Z" id="a4W8znih1w"></path><path d="M189.42 144.05C193.33 144.05 196.5 147.22 196.5 151.13C196.5 152.83 196.5 150.84 196.5 152.54C196.5 156.45 193.33 159.62 189.42 159.62C188.01 159.62 190.84 159.62 189.42 159.62C185.52 159.62 182.35 156.45 182.35 152.54C182.35 150.84 182.35 152.83 182.35 151.13C182.35 147.22 185.52 144.05 189.42 144.05C190.84 144.05 188.01 144.05 189.42 144.05Z" id="cmOXsDYVz"></path><path d="M209.36 144.05C213.27 144.05 216.44 147.22 216.44 151.13C216.44 152.83 216.44 150.84 216.44 152.54C216.44 156.45 213.27 159.62 209.36 159.62C207.95 159.62 210.78 159.62 209.36 159.62C205.45 159.62 202.29 156.45 202.29 152.54C202.29 150.84 202.29 152.83 202.29 151.13C202.29 147.22 205.45 144.05 209.36 144.05C210.78 144.05 207.95 144.05 209.36 144.05Z" id="d5PKTX8DXI"></path><path d="M228.27 144.05C232.18 144.05 235.34 147.22 235.34 151.13C235.34 152.83 235.34 150.84 235.34 152.54C235.34 156.45 232.18 159.62 228.27 159.62C226.85 159.62 229.68 159.62 228.27 159.62C224.36 159.62 221.19 156.45 221.19 152.54C221.19 150.84 221.19 152.83 221.19 151.13C221.19 147.22 224.36 144.05 228.27 144.05C229.68 144.05 226.85 144.05 228.27 144.05Z" id="aCrbidq0E"></path><path d="M247.21 144.05C251.11 144.05 254.28 147.22 254.28 151.13C254.28 152.83 254.28 150.84 254.28 152.54C254.28 156.45 251.11 159.62 247.21 159.62C245.79 159.62 248.62 159.62 247.21 159.62C243.3 159.62 240.13 156.45 240.13 152.54C240.13 150.84 240.13 152.83 240.13 151.13C240.13 147.22 243.3 144.05 247.21 144.05C248.62 144.05 245.79 144.05 247.21 144.05Z" id="f351Eca55x"></path><path d="M11.14 164.05C15.05 164.05 18.22 167.22 18.22 171.13C18.22 172.83 18.22 170.84 18.22 172.54C18.22 176.45 15.05 179.62 11.14 179.62C9.73 179.62 12.56 179.62 11.14 179.62C7.24 179.62 4.07 176.45 4.07 172.54C4.07 170.84 4.07 172.83 4.07 171.13C4.07 167.22 7.24 164.05 11.14 164.05C12.56 164.05 9.73 164.05 11.14 164.05Z" id="c7gcPbijD6"></path><path d="M30.05 164.05C33.96 164.05 37.13 167.22 37.13 171.13C37.13 172.83 37.13 170.84 37.13 172.54C37.13 176.45 33.96 179.62 30.05 179.62C28.63 179.62 31.46 179.62 30.05 179.62C26.14 179.62 22.97 176.45 22.97 172.54C22.97 170.84 22.97 172.83 22.97 171.13C22.97 167.22 26.14 164.05 30.05 164.05C31.46 164.05 28.63 164.05 30.05 164.05Z" id="alCavDcMi"></path><path d="M50.99 164.05C54.89 164.05 58.06 167.22 58.06 171.13C58.06 172.83 58.06 170.84 58.06 172.54C58.06 176.45 54.89 179.62 50.99 179.62C49.57 179.62 52.4 179.62 50.99 179.62C47.08 179.62 43.91 176.45 43.91 172.54C43.91 170.84 43.91 172.83 43.91 171.13C43.91 167.22 47.08 164.05 50.99 164.05C52.4 164.05 49.57 164.05 50.99 164.05Z" id="a2eVbUKe5"></path><path d="M69.89 164.05C73.8 164.05 76.97 167.22 76.97 171.13C76.97 172.83 76.97 170.84 76.97 172.54C76.97 176.45 73.8 179.62 69.89 179.62C68.48 179.62 71.31 179.62 69.89 179.62C65.99 179.62 62.82 176.45 62.82 172.54C62.82 170.84 62.82 172.83 62.82 171.13C62.82 167.22 65.99 164.05 69.89 164.05C71.31 164.05 68.48 164.05 69.89 164.05Z" id="b3RFFVdjTQ"></path><path d="M90.83 164.05C94.74 164.05 97.91 167.22 97.91 171.13C97.91 172.83 97.91 170.84 97.91 172.54C97.91 176.45 94.74 179.62 90.83 179.62C89.42 179.62 92.25 179.62 90.83 179.62C86.92 179.62 83.75 176.45 83.75 172.54C83.75 170.84 83.75 172.83 83.75 171.13C83.75 167.22 86.92 164.05 90.83 164.05C92.25 164.05 89.42 164.05 90.83 164.05Z" id="hdVoLbMRn"></path><path d="M109.74 164.05C113.64 164.05 116.81 167.22 116.81 171.13C116.81 172.83 116.81 170.84 116.81 172.54C116.81 176.45 113.64 179.62 109.74 179.62C108.32 179.62 111.15 179.62 109.74 179.62C105.83 179.62 102.66 176.45 102.66 172.54C102.66 170.84 102.66 172.83 102.66 171.13C102.66 167.22 105.83 164.05 109.74 164.05C111.15 164.05 108.32 164.05 109.74 164.05Z" id="bjt0RLsz"></path><path d="M129.67 164.05C133.58 164.05 136.75 167.22 136.75 171.13C136.75 172.83 136.75 170.84 136.75 172.54C136.75 176.45 133.58 179.62 129.67 179.62C128.26 179.62 131.09 179.62 129.67 179.62C125.77 179.62 122.6 176.45 122.6 172.54C122.6 170.84 122.6 172.83 122.6 171.13C122.6 167.22 125.77 164.05 129.67 164.05C131.09 164.05 128.26 164.05 129.67 164.05Z" id="bn6YNOcfo"></path><path d="M148.58 164.05C152.49 164.05 155.66 167.22 155.66 171.13C155.66 172.83 155.66 170.84 155.66 172.54C155.66 176.45 152.49 179.62 148.58 179.62C147.17 179.62 150 179.62 148.58 179.62C144.67 179.62 141.5 176.45 141.5 172.54C141.5 170.84 141.5 172.83 141.5 171.13C141.5 167.22 144.67 164.05 148.58 164.05C150 164.05 147.17 164.05 148.58 164.05Z" id="a1BuGFpzy1"></path><path d="M169.52 164.05C173.43 164.05 176.59 167.22 176.59 171.13C176.59 172.83 176.59 170.84 176.59 172.54C176.59 176.45 173.43 179.62 169.52 179.62C168.1 179.62 170.93 179.62 169.52 179.62C165.61 179.62 162.44 176.45 162.44 172.54C162.44 170.84 162.44 172.83 162.44 171.13C162.44 167.22 165.61 164.05 169.52 164.05C170.93 164.05 168.1 164.05 169.52 164.05Z" id="bk0yXDzX"></path><path d="M189.42 164.05C193.33 164.05 196.5 167.22 196.5 171.13C196.5 172.83 196.5 170.84 196.5 172.54C196.5 176.45 193.33 179.62 189.42 179.62C188.01 179.62 190.84 179.62 189.42 179.62C185.52 179.62 182.35 176.45 182.35 172.54C182.35 170.84 182.35 172.83 182.35 171.13C182.35 167.22 185.52 164.05 189.42 164.05C190.84 164.05 188.01 164.05 189.42 164.05Z" id="ccX1DDZED"></path><path d="M209.36 164.05C213.27 164.05 216.44 167.22 216.44 171.13C216.44 172.83 216.44 170.84 216.44 172.54C216.44 176.45 213.27 179.62 209.36 179.62C207.95 179.62 210.78 179.62 209.36 179.62C205.45 179.62 202.29 176.45 202.29 172.54C202.29 170.84 202.29 172.83 202.29 171.13C202.29 167.22 205.45 164.05 209.36 164.05C210.78 164.05 207.95 164.05 209.36 164.05Z" id="e2CdtfWIem"></path><path d="M228.27 164.05C232.18 164.05 235.34 167.22 235.34 171.13C235.34 172.83 235.34 170.84 235.34 172.54C235.34 176.45 232.18 179.62 228.27 179.62C226.85 179.62 229.68 179.62 228.27 179.62C224.36 179.62 221.19 176.45 221.19 172.54C221.19 170.84 221.19 172.83 221.19 171.13C221.19 167.22 224.36 164.05 228.27 164.05C229.68 164.05 226.85 164.05 228.27 164.05Z" id="i5Aq1HvC65"></path><path d="M247.21 164.05C251.11 164.05 254.28 167.22 254.28 171.13C254.28 172.83 254.28 170.84 254.28 172.54C254.28 176.45 251.11 179.62 247.21 179.62C245.79 179.62 248.62 179.62 247.21 179.62C243.3 179.62 240.13 176.45 240.13 172.54C240.13 170.84 240.13 172.83 240.13 171.13C240.13 167.22 243.3 164.05 247.21 164.05C248.62 164.05 245.79 164.05 247.21 164.05Z" id="eb1T0R3Yx"></path><path d="M11.14 184.05C15.05 184.05 18.22 187.22 18.22 191.13C18.22 192.83 18.22 190.84 18.22 192.54C18.22 196.45 15.05 199.62 11.14 199.62C9.73 199.62 12.56 199.62 11.14 199.62C7.24 199.62 4.07 196.45 4.07 192.54C4.07 190.84 4.07 192.83 4.07 191.13C4.07 187.22 7.24 184.05 11.14 184.05C12.56 184.05 9.73 184.05 11.14 184.05Z" id="b4NqtZqxmk"></path><path d="M30.05 184.05C33.96 184.05 37.13 187.22 37.13 191.13C37.13 192.83 37.13 190.84 37.13 192.54C37.13 196.45 33.96 199.62 30.05 199.62C28.63 199.62 31.46 199.62 30.05 199.62C26.14 199.62 22.97 196.45 22.97 192.54C22.97 190.84 22.97 192.83 22.97 191.13C22.97 187.22 26.14 184.05 30.05 184.05C31.46 184.05 28.63 184.05 30.05 184.05Z" id="c68VHl0JCF"></path><path d="M50.99 184.05C54.89 184.05 58.06 187.22 58.06 191.13C58.06 192.83 58.06 190.84 58.06 192.54C58.06 196.45 54.89 199.62 50.99 199.62C49.57 199.62 52.4 199.62 50.99 199.62C47.08 199.62 43.91 196.45 43.91 192.54C43.91 190.84 43.91 192.83 43.91 191.13C43.91 187.22 47.08 184.05 50.99 184.05C52.4 184.05 49.57 184.05 50.99 184.05Z" id="beyUUjqi8"></path><path d="M69.89 184.05C73.8 184.05 76.97 187.22 76.97 191.13C76.97 192.83 76.97 190.84 76.97 192.54C76.97 196.45 73.8 199.62 69.89 199.62C68.48 199.62 71.31 199.62 69.89 199.62C65.99 199.62 62.82 196.45 62.82 192.54C62.82 190.84 62.82 192.83 62.82 191.13C62.82 187.22 65.99 184.05 69.89 184.05C71.31 184.05 68.48 184.05 69.89 184.05Z" id="bGTzfp6TN"></path><path d="M90.83 184.05C94.74 184.05 97.91 187.22 97.91 191.13C97.91 192.83 97.91 190.84 97.91 192.54C97.91 196.45 94.74 199.62 90.83 199.62C89.42 199.62 92.25 199.62 90.83 199.62C86.92 199.62 83.75 196.45 83.75 192.54C83.75 190.84 83.75 192.83 83.75 191.13C83.75 187.22 86.92 184.05 90.83 184.05C92.25 184.05 89.42 184.05 90.83 184.05Z" id="e3P4AGTFg"></path><path d="M109.74 184.05C113.64 184.05 116.81 187.22 116.81 191.13C116.81 192.83 116.81 190.84 116.81 192.54C116.81 196.45 113.64 199.62 109.74 199.62C108.32 199.62 111.15 199.62 109.74 199.62C105.83 199.62 102.66 196.45 102.66 192.54C102.66 190.84 102.66 192.83 102.66 191.13C102.66 187.22 105.83 184.05 109.74 184.05C111.15 184.05 108.32 184.05 109.74 184.05Z" id="c1faCMXaTM"></path><path d="M129.67 184.05C133.58 184.05 136.75 187.22 136.75 191.13C136.75 192.83 136.75 190.84 136.75 192.54C136.75 196.45 133.58 199.62 129.67 199.62C128.26 199.62 131.09 199.62 129.67 199.62C125.77 199.62 122.6 196.45 122.6 192.54C122.6 190.84 122.6 192.83 122.6 191.13C122.6 187.22 125.77 184.05 129.67 184.05C131.09 184.05 128.26 184.05 129.67 184.05Z" id="a1zbKoHEsI"></path><path d="M148.58 184.05C152.49 184.05 155.66 187.22 155.66 191.13C155.66 192.83 155.66 190.84 155.66 192.54C155.66 196.45 152.49 199.62 148.58 199.62C147.17 199.62 150 199.62 148.58 199.62C144.67 199.62 141.5 196.45 141.5 192.54C141.5 190.84 141.5 192.83 141.5 191.13C141.5 187.22 144.67 184.05 148.58 184.05C150 184.05 147.17 184.05 148.58 184.05Z" id="b8VyUA5T5"></path><path d="M169.52 184.05C173.43 184.05 176.59 187.22 176.59 191.13C176.59 192.83 176.59 190.84 176.59 192.54C176.59 196.45 173.43 199.62 169.52 199.62C168.1 199.62 170.93 199.62 169.52 199.62C165.61 199.62 162.44 196.45 162.44 192.54C162.44 190.84 162.44 192.83 162.44 191.13C162.44 187.22 165.61 184.05 169.52 184.05C170.93 184.05 168.1 184.05 169.52 184.05Z" id="i4o9V3C3"></path><path d="M189.42 184.05C193.33 184.05 196.5 187.22 196.5 191.13C196.5 192.83 196.5 190.84 196.5 192.54C196.5 196.45 193.33 199.62 189.42 199.62C188.01 199.62 190.84 199.62 189.42 199.62C185.52 199.62 182.35 196.45 182.35 192.54C182.35 190.84 182.35 192.83 182.35 191.13C182.35 187.22 185.52 184.05 189.42 184.05C190.84 184.05 188.01 184.05 189.42 184.05Z" id="a27sx3t3H"></path><path d="M209.36 184.05C213.27 184.05 216.44 187.22 216.44 191.13C216.44 192.83 216.44 190.84 216.44 192.54C216.44 196.45 213.27 199.62 209.36 199.62C207.95 199.62 210.78 199.62 209.36 199.62C205.45 199.62 202.29 196.45 202.29 192.54C202.29 190.84 202.29 192.83 202.29 191.13C202.29 187.22 205.45 184.05 209.36 184.05C210.78 184.05 207.95 184.05 209.36 184.05Z" id="c1hE04cHkk"></path><path d="M228.27 184.05C232.18 184.05 235.34 187.22 235.34 191.13C235.34 192.83 235.34 190.84 235.34 192.54C235.34 196.45 232.18 199.62 228.27 199.62C226.85 199.62 229.68 199.62 228.27 199.62C224.36 199.62 221.19 196.45 221.19 192.54C221.19 190.84 221.19 192.83 221.19 191.13C221.19 187.22 224.36 184.05 228.27 184.05C229.68 184.05 226.85 184.05 228.27 184.05Z" id="g3lH7Hvso"></path><path d="M247.21 184.05C251.11 184.05 254.28 187.22 254.28 191.13C254.28 192.83 254.28 190.84 254.28 192.54C254.28 196.45 251.11 199.62 247.21 199.62C245.79 199.62 248.62 199.62 247.21 199.62C243.3 199.62 240.13 196.45 240.13 192.54C240.13 190.84 240.13 192.83 240.13 191.13C240.13 187.22 243.3 184.05 247.21 184.05C248.62 184.05 245.79 184.05 247.21 184.05Z" id="m2M6Az3RVS"></path><path d="M11.14 204.05C15.05 204.05 18.22 207.22 18.22 211.13C18.22 212.83 18.22 210.84 18.22 212.54C18.22 216.45 15.05 219.62 11.14 219.62C9.73 219.62 12.56 219.62 11.14 219.62C7.24 219.62 4.07 216.45 4.07 212.54C4.07 210.84 4.07 212.83 4.07 211.13C4.07 207.22 7.24 204.05 11.14 204.05C12.56 204.05 9.73 204.05 11.14 204.05Z" id="a5p2EgCWfd"></path><path d="M30.05 204.05C33.96 204.05 37.13 207.22 37.13 211.13C37.13 212.83 37.13 210.84 37.13 212.54C37.13 216.45 33.96 219.62 30.05 219.62C28.63 219.62 31.46 219.62 30.05 219.62C26.14 219.62 22.97 216.45 22.97 212.54C22.97 210.84 22.97 212.83 22.97 211.13C22.97 207.22 26.14 204.05 30.05 204.05C31.46 204.05 28.63 204.05 30.05 204.05Z" id="alaHu9TYS"></path><path d="M50.99 204.05C54.89 204.05 58.06 207.22 58.06 211.13C58.06 212.83 58.06 210.84 58.06 212.54C58.06 216.45 54.89 219.62 50.99 219.62C49.57 219.62 52.4 219.62 50.99 219.62C47.08 219.62 43.91 216.45 43.91 212.54C43.91 210.84 43.91 212.83 43.91 211.13C43.91 207.22 47.08 204.05 50.99 204.05C52.4 204.05 49.57 204.05 50.99 204.05Z" id="iVQ63ONmE"></path><path d="M69.89 204.05C73.8 204.05 76.97 207.22 76.97 211.13C76.97 212.83 76.97 210.84 76.97 212.54C76.97 216.45 73.8 219.62 69.89 219.62C68.48 219.62 71.31 219.62 69.89 219.62C65.99 219.62 62.82 216.45 62.82 212.54C62.82 210.84 62.82 212.83 62.82 211.13C62.82 207.22 65.99 204.05 69.89 204.05C71.31 204.05 68.48 204.05 69.89 204.05Z" id="d2tCPG0IBc"></path><path d="M90.83 204.05C94.74 204.05 97.91 207.22 97.91 211.13C97.91 212.83 97.91 210.84 97.91 212.54C97.91 216.45 94.74 219.62 90.83 219.62C89.42 219.62 92.25 219.62 90.83 219.62C86.92 219.62 83.75 216.45 83.75 212.54C83.75 210.84 83.75 212.83 83.75 211.13C83.75 207.22 86.92 204.05 90.83 204.05C92.25 204.05 89.42 204.05 90.83 204.05Z" id="b9gOoS6SG"></path><path d="M109.74 204.05C113.64 204.05 116.81 207.22 116.81 211.13C116.81 212.83 116.81 210.84 116.81 212.54C116.81 216.45 113.64 219.62 109.74 219.62C108.32 219.62 111.15 219.62 109.74 219.62C105.83 219.62 102.66 216.45 102.66 212.54C102.66 210.84 102.66 212.83 102.66 211.13C102.66 207.22 105.83 204.05 109.74 204.05C111.15 204.05 108.32 204.05 109.74 204.05Z" id="c3dQTuhfw"></path><path d="M129.67 204.05C133.58 204.05 136.75 207.22 136.75 211.13C136.75 212.83 136.75 210.84 136.75 212.54C136.75 216.45 133.58 219.62 129.67 219.62C128.26 219.62 131.09 219.62 129.67 219.62C125.77 219.62 122.6 216.45 122.6 212.54C122.6 210.84 122.6 212.83 122.6 211.13C122.6 207.22 125.77 204.05 129.67 204.05C131.09 204.05 128.26 204.05 129.67 204.05Z" id="bzzu6WIPQ"></path><path d="M148.58 204.05C152.49 204.05 155.66 207.22 155.66 211.13C155.66 212.83 155.66 210.84 155.66 212.54C155.66 216.45 152.49 219.62 148.58 219.62C147.17 219.62 150 219.62 148.58 219.62C144.67 219.62 141.5 216.45 141.5 212.54C141.5 210.84 141.5 212.83 141.5 211.13C141.5 207.22 144.67 204.05 148.58 204.05C150 204.05 147.17 204.05 148.58 204.05Z" id="a5cDoS6YIY"></path><path d="M169.52 204.05C173.43 204.05 176.59 207.22 176.59 211.13C176.59 212.83 176.59 210.84 176.59 212.54C176.59 216.45 173.43 219.62 169.52 219.62C168.1 219.62 170.93 219.62 169.52 219.62C165.61 219.62 162.44 216.45 162.44 212.54C162.44 210.84 162.44 212.83 162.44 211.13C162.44 207.22 165.61 204.05 169.52 204.05C170.93 204.05 168.1 204.05 169.52 204.05Z" id="a1ytcomaZC"></path><path d="M189.42 204.05C193.33 204.05 196.5 207.22 196.5 211.13C196.5 212.83 196.5 210.84 196.5 212.54C196.5 216.45 193.33 219.62 189.42 219.62C188.01 219.62 190.84 219.62 189.42 219.62C185.52 219.62 182.35 216.45 182.35 212.54C182.35 210.84 182.35 212.83 182.35 211.13C182.35 207.22 185.52 204.05 189.42 204.05C190.84 204.05 188.01 204.05 189.42 204.05Z" id="cfRKTWjGY"></path><path d="M209.36 204.05C213.27 204.05 216.44 207.22 216.44 211.13C216.44 212.83 216.44 210.84 216.44 212.54C216.44 216.45 213.27 219.62 209.36 219.62C207.95 219.62 210.78 219.62 209.36 219.62C205.45 219.62 202.29 216.45 202.29 212.54C202.29 210.84 202.29 212.83 202.29 211.13C202.29 207.22 205.45 204.05 209.36 204.05C210.78 204.05 207.95 204.05 209.36 204.05Z" id="a2XmLiIftC"></path><path d="M228.27 204.05C232.18 204.05 235.34 207.22 235.34 211.13C235.34 212.83 235.34 210.84 235.34 212.54C235.34 216.45 232.18 219.62 228.27 219.62C226.85 219.62 229.68 219.62 228.27 219.62C224.36 219.62 221.19 216.45 221.19 212.54C221.19 210.84 221.19 212.83 221.19 211.13C221.19 207.22 224.36 204.05 228.27 204.05C229.68 204.05 226.85 204.05 228.27 204.05Z" id="jYDBKIyc"></path><path d="M247.21 204.05C251.11 204.05 254.28 207.22 254.28 211.13C254.28 212.83 254.28 210.84 254.28 212.54C254.28 216.45 251.11 219.62 247.21 219.62C245.79 219.62 248.62 219.62 247.21 219.62C243.3 219.62 240.13 216.45 240.13 212.54C240.13 210.84 240.13 212.83 240.13 211.13C240.13 207.22 243.3 204.05 247.21 204.05C248.62 204.05 245.79 204.05 247.21 204.05Z" id="bfFeGFreq"></path><path d="M11.14 224.05C15.05 224.05 18.22 227.22 18.22 231.13C18.22 232.83 18.22 230.84 18.22 232.54C18.22 236.45 15.05 239.62 11.14 239.62C9.73 239.62 12.56 239.62 11.14 239.62C7.24 239.62 4.07 236.45 4.07 232.54C4.07 230.84 4.07 232.83 4.07 231.13C4.07 227.22 7.24 224.05 11.14 224.05C12.56 224.05 9.73 224.05 11.14 224.05Z" id="dVBUIQ7bc"></path><path d="M30.05 224.05C33.96 224.05 37.13 227.22 37.13 231.13C37.13 232.83 37.13 230.84 37.13 232.54C37.13 236.45 33.96 239.62 30.05 239.62C28.63 239.62 31.46 239.62 30.05 239.62C26.14 239.62 22.97 236.45 22.97 232.54C22.97 230.84 22.97 232.83 22.97 231.13C22.97 227.22 26.14 224.05 30.05 224.05C31.46 224.05 28.63 224.05 30.05 224.05Z" id="d3etpvz4rh"></path><path d="M50.99 224.05C54.89 224.05 58.06 227.22 58.06 231.13C58.06 232.83 58.06 230.84 58.06 232.54C58.06 236.45 54.89 239.62 50.99 239.62C49.57 239.62 52.4 239.62 50.99 239.62C47.08 239.62 43.91 236.45 43.91 232.54C43.91 230.84 43.91 232.83 43.91 231.13C43.91 227.22 47.08 224.05 50.99 224.05C52.4 224.05 49.57 224.05 50.99 224.05Z" id="g1YASh7P6R"></path><path d="M69.89 224.05C73.8 224.05 76.97 227.22 76.97 231.13C76.97 232.83 76.97 230.84 76.97 232.54C76.97 236.45 73.8 239.62 69.89 239.62C68.48 239.62 71.31 239.62 69.89 239.62C65.99 239.62 62.82 236.45 62.82 232.54C62.82 230.84 62.82 232.83 62.82 231.13C62.82 227.22 65.99 224.05 69.89 224.05C71.31 224.05 68.48 224.05 69.89 224.05Z" id="a16ihobtO9"></path><path d="M90.83 224.05C94.74 224.05 97.91 227.22 97.91 231.13C97.91 232.83 97.91 230.84 97.91 232.54C97.91 236.45 94.74 239.62 90.83 239.62C89.42 239.62 92.25 239.62 90.83 239.62C86.92 239.62 83.75 236.45 83.75 232.54C83.75 230.84 83.75 232.83 83.75 231.13C83.75 227.22 86.92 224.05 90.83 224.05C92.25 224.05 89.42 224.05 90.83 224.05Z" id="a1sqw0aDoe"></path><path d="M109.74 224.05C113.64 224.05 116.81 227.22 116.81 231.13C116.81 232.83 116.81 230.84 116.81 232.54C116.81 236.45 113.64 239.62 109.74 239.62C108.32 239.62 111.15 239.62 109.74 239.62C105.83 239.62 102.66 236.45 102.66 232.54C102.66 230.84 102.66 232.83 102.66 231.13C102.66 227.22 105.83 224.05 109.74 224.05C111.15 224.05 108.32 224.05 109.74 224.05Z" id="cO2EEsZ8F"></path><path d="M129.67 224.05C133.58 224.05 136.75 227.22 136.75 231.13C136.75 232.83 136.75 230.84 136.75 232.54C136.75 236.45 133.58 239.62 129.67 239.62C128.26 239.62 131.09 239.62 129.67 239.62C125.77 239.62 122.6 236.45 122.6 232.54C122.6 230.84 122.6 232.83 122.6 231.13C122.6 227.22 125.77 224.05 129.67 224.05C131.09 224.05 128.26 224.05 129.67 224.05Z" id="g5LI8swjRc"></path><path d="M148.58 224.05C152.49 224.05 155.66 227.22 155.66 231.13C155.66 232.83 155.66 230.84 155.66 232.54C155.66 236.45 152.49 239.62 148.58 239.62C147.17 239.62 150 239.62 148.58 239.62C144.67 239.62 141.5 236.45 141.5 232.54C141.5 230.84 141.5 232.83 141.5 231.13C141.5 227.22 144.67 224.05 148.58 224.05C150 224.05 147.17 224.05 148.58 224.05Z" id="baueAQk9P"></path><path d="M169.52 224.05C173.43 224.05 176.59 227.22 176.59 231.13C176.59 232.83 176.59 230.84 176.59 232.54C176.59 236.45 173.43 239.62 169.52 239.62C168.1 239.62 170.93 239.62 169.52 239.62C165.61 239.62 162.44 236.45 162.44 232.54C162.44 230.84 162.44 232.83 162.44 231.13C162.44 227.22 165.61 224.05 169.52 224.05C170.93 224.05 168.1 224.05 169.52 224.05Z" id="d1MCAVMwTN"></path><path d="M189.42 224.05C193.33 224.05 196.5 227.22 196.5 231.13C196.5 232.83 196.5 230.84 196.5 232.54C196.5 236.45 193.33 239.62 189.42 239.62C188.01 239.62 190.84 239.62 189.42 239.62C185.52 239.62 182.35 236.45 182.35 232.54C182.35 230.84 182.35 232.83 182.35 231.13C182.35 227.22 185.52 224.05 189.42 224.05C190.84 224.05 188.01 224.05 189.42 224.05Z" id="g1j4u4YNLN"></path><path d="M209.36 224.05C213.27 224.05 216.44 227.22 216.44 231.13C216.44 232.83 216.44 230.84 216.44 232.54C216.44 236.45 213.27 239.62 209.36 239.62C207.95 239.62 210.78 239.62 209.36 239.62C205.45 239.62 202.29 236.45 202.29 232.54C202.29 230.84 202.29 232.83 202.29 231.13C202.29 227.22 205.45 224.05 209.36 224.05C210.78 224.05 207.95 224.05 209.36 224.05Z" id="fs64WHlfb"></path><path d="M228.27 224.05C232.18 224.05 235.34 227.22 235.34 231.13C235.34 232.83 235.34 230.84 235.34 232.54C235.34 236.45 232.18 239.62 228.27 239.62C226.85 239.62 229.68 239.62 228.27 239.62C224.36 239.62 221.19 236.45 221.19 232.54C221.19 230.84 221.19 232.83 221.19 231.13C221.19 227.22 224.36 224.05 228.27 224.05C229.68 224.05 226.85 224.05 228.27 224.05Z" id="aAcVdTfCc"></path><path d="M247.21 224.05C251.11 224.05 254.28 227.22 254.28 231.13C254.28 232.83 254.28 230.84 254.28 232.54C254.28 236.45 251.11 239.62 247.21 239.62C245.79 239.62 248.62 239.62 247.21 239.62C243.3 239.62 240.13 236.45 240.13 232.54C240.13 230.84 240.13 232.83 240.13 231.13C240.13 227.22 243.3 224.05 247.21 224.05C248.62 224.05 245.79 224.05 247.21 224.05Z" id="c1qsUrdhG2"></path><path d="M11.14 244.05C15.05 244.05 18.22 247.22 18.22 251.13C18.22 252.83 18.22 250.84 18.22 252.54C18.22 256.45 15.05 259.62 11.14 259.62C9.73 259.62 12.56 259.62 11.14 259.62C7.24 259.62 4.07 256.45 4.07 252.54C4.07 250.84 4.07 252.83 4.07 251.13C4.07 247.22 7.24 244.05 11.14 244.05C12.56 244.05 9.73 244.05 11.14 244.05Z" id="e3xJDnxzJ5"></path><path d="M30.05 244.05C33.96 244.05 37.13 247.22 37.13 251.13C37.13 252.83 37.13 250.84 37.13 252.54C37.13 256.45 33.96 259.62 30.05 259.62C28.63 259.62 31.46 259.62 30.05 259.62C26.14 259.62 22.97 256.45 22.97 252.54C22.97 250.84 22.97 252.83 22.97 251.13C22.97 247.22 26.14 244.05 30.05 244.05C31.46 244.05 28.63 244.05 30.05 244.05Z" id="a59EqvObe"></path><path d="M50.99 244.05C54.89 244.05 58.06 247.22 58.06 251.13C58.06 252.83 58.06 250.84 58.06 252.54C58.06 256.45 54.89 259.62 50.99 259.62C49.57 259.62 52.4 259.62 50.99 259.62C47.08 259.62 43.91 256.45 43.91 252.54C43.91 250.84 43.91 252.83 43.91 251.13C43.91 247.22 47.08 244.05 50.99 244.05C52.4 244.05 49.57 244.05 50.99 244.05Z" id="c1ZDDsXROm"></path><path d="M69.89 244.05C73.8 244.05 76.97 247.22 76.97 251.13C76.97 252.83 76.97 250.84 76.97 252.54C76.97 256.45 73.8 259.62 69.89 259.62C68.48 259.62 71.31 259.62 69.89 259.62C65.99 259.62 62.82 256.45 62.82 252.54C62.82 250.84 62.82 252.83 62.82 251.13C62.82 247.22 65.99 244.05 69.89 244.05C71.31 244.05 68.48 244.05 69.89 244.05Z" id="ak93d02v3"></path><path d="M90.83 244.05C94.74 244.05 97.91 247.22 97.91 251.13C97.91 252.83 97.91 250.84 97.91 252.54C97.91 256.45 94.74 259.62 90.83 259.62C89.42 259.62 92.25 259.62 90.83 259.62C86.92 259.62 83.75 256.45 83.75 252.54C83.75 250.84 83.75 252.83 83.75 251.13C83.75 247.22 86.92 244.05 90.83 244.05C92.25 244.05 89.42 244.05 90.83 244.05Z" id="aeWyHduF8"></path><path d="M109.74 244.05C113.64 244.05 116.81 247.22 116.81 251.13C116.81 252.83 116.81 250.84 116.81 252.54C116.81 256.45 113.64 259.62 109.74 259.62C108.32 259.62 111.15 259.62 109.74 259.62C105.83 259.62 102.66 256.45 102.66 252.54C102.66 250.84 102.66 252.83 102.66 251.13C102.66 247.22 105.83 244.05 109.74 244.05C111.15 244.05 108.32 244.05 109.74 244.05Z" id="a4Z8A3FpF2"></path><path d="M129.67 244.05C133.58 244.05 136.75 247.22 136.75 251.13C136.75 252.83 136.75 250.84 136.75 252.54C136.75 256.45 133.58 259.62 129.67 259.62C128.26 259.62 131.09 259.62 129.67 259.62C125.77 259.62 122.6 256.45 122.6 252.54C122.6 250.84 122.6 252.83 122.6 251.13C122.6 247.22 125.77 244.05 129.67 244.05C131.09 244.05 128.26 244.05 129.67 244.05Z" id="f4Sg2qkUg2"></path><path d="M148.58 244.05C152.49 244.05 155.66 247.22 155.66 251.13C155.66 252.83 155.66 250.84 155.66 252.54C155.66 256.45 152.49 259.62 148.58 259.62C147.17 259.62 150 259.62 148.58 259.62C144.67 259.62 141.5 256.45 141.5 252.54C141.5 250.84 141.5 252.83 141.5 251.13C141.5 247.22 144.67 244.05 148.58 244.05C150 244.05 147.17 244.05 148.58 244.05Z" id="g3cmBj5enj"></path><path d="M169.52 244.05C173.43 244.05 176.59 247.22 176.59 251.13C176.59 252.83 176.59 250.84 176.59 252.54C176.59 256.45 173.43 259.62 169.52 259.62C168.1 259.62 170.93 259.62 169.52 259.62C165.61 259.62 162.44 256.45 162.44 252.54C162.44 250.84 162.44 252.83 162.44 251.13C162.44 247.22 165.61 244.05 169.52 244.05C170.93 244.05 168.1 244.05 169.52 244.05Z" id="a9QGyym9V"></path><path d="M189.42 244.05C193.33 244.05 196.5 247.22 196.5 251.13C196.5 252.83 196.5 250.84 196.5 252.54C196.5 256.45 193.33 259.62 189.42 259.62C188.01 259.62 190.84 259.62 189.42 259.62C185.52 259.62 182.35 256.45 182.35 252.54C182.35 250.84 182.35 252.83 182.35 251.13C182.35 247.22 185.52 244.05 189.42 244.05C190.84 244.05 188.01 244.05 189.42 244.05Z" id="b7pT20kmK7"></path><path d="M209.36 244.05C213.27 244.05 216.44 247.22 216.44 251.13C216.44 252.83 216.44 250.84 216.44 252.54C216.44 256.45 213.27 259.62 209.36 259.62C207.95 259.62 210.78 259.62 209.36 259.62C205.45 259.62 202.29 256.45 202.29 252.54C202.29 250.84 202.29 252.83 202.29 251.13C202.29 247.22 205.45 244.05 209.36 244.05C210.78 244.05 207.95 244.05 209.36 244.05Z" id="c9iP53qFc"></path><path d="M228.27 244.05C232.18 244.05 235.34 247.22 235.34 251.13C235.34 252.83 235.34 250.84 235.34 252.54C235.34 256.45 232.18 259.62 228.27 259.62C226.85 259.62 229.68 259.62 228.27 259.62C224.36 259.62 221.19 256.45 221.19 252.54C221.19 250.84 221.19 252.83 221.19 251.13C221.19 247.22 224.36 244.05 228.27 244.05C229.68 244.05 226.85 244.05 228.27 244.05Z" id="f13fFBEPP7"></path><path d="M247.21 244.05C251.11 244.05 254.28 247.22 254.28 251.13C254.28 252.83 254.28 250.84 254.28 252.54C254.28 256.45 251.11 259.62 247.21 259.62C245.79 259.62 248.62 259.62 247.21 259.62C243.3 259.62 240.13 256.45 240.13 252.54C240.13 250.84 240.13 252.83 240.13 251.13C240.13 247.22 243.3 244.05 247.21 244.05C248.62 244.05 245.79 244.05 247.21 244.05Z" id="h1oWA6AKSx"></path><path d="M11.14 264.05C15.05 264.05 18.22 267.22 18.22 271.13C18.22 272.83 18.22 270.84 18.22 272.54C18.22 276.45 15.05 279.62 11.14 279.62C9.73 279.62 12.56 279.62 11.14 279.62C7.24 279.62 4.07 276.45 4.07 272.54C4.07 270.84 4.07 272.83 4.07 271.13C4.07 267.22 7.24 264.05 11.14 264.05C12.56 264.05 9.73 264.05 11.14 264.05Z" id="c1ezgLANI3"></path><path d="M30.05 264.05C33.96 264.05 37.13 267.22 37.13 271.13C37.13 272.83 37.13 270.84 37.13 272.54C37.13 276.45 33.96 279.62 30.05 279.62C28.63 279.62 31.46 279.62 30.05 279.62C26.14 279.62 22.97 276.45 22.97 272.54C22.97 270.84 22.97 272.83 22.97 271.13C22.97 267.22 26.14 264.05 30.05 264.05C31.46 264.05 28.63 264.05 30.05 264.05Z" id="a2TK1gb4W2"></path><path d="M50.99 264.05C54.89 264.05 58.06 267.22 58.06 271.13C58.06 272.83 58.06 270.84 58.06 272.54C58.06 276.45 54.89 279.62 50.99 279.62C49.57 279.62 52.4 279.62 50.99 279.62C47.08 279.62 43.91 276.45 43.91 272.54C43.91 270.84 43.91 272.83 43.91 271.13C43.91 267.22 47.08 264.05 50.99 264.05C52.4 264.05 49.57 264.05 50.99 264.05Z" id="j2fPSyWDWm"></path><path d="M69.89 264.05C73.8 264.05 76.97 267.22 76.97 271.13C76.97 272.83 76.97 270.84 76.97 272.54C76.97 276.45 73.8 279.62 69.89 279.62C68.48 279.62 71.31 279.62 69.89 279.62C65.99 279.62 62.82 276.45 62.82 272.54C62.82 270.84 62.82 272.83 62.82 271.13C62.82 267.22 65.99 264.05 69.89 264.05C71.31 264.05 68.48 264.05 69.89 264.05Z" id="i12MqFixsJ"></path><path d="M90.83 264.05C94.74 264.05 97.91 267.22 97.91 271.13C97.91 272.83 97.91 270.84 97.91 272.54C97.91 276.45 94.74 279.62 90.83 279.62C89.42 279.62 92.25 279.62 90.83 279.62C86.92 279.62 83.75 276.45 83.75 272.54C83.75 270.84 83.75 272.83 83.75 271.13C83.75 267.22 86.92 264.05 90.83 264.05C92.25 264.05 89.42 264.05 90.83 264.05Z" id="c1QLXMcdgO"></path><path d="M109.74 264.05C113.64 264.05 116.81 267.22 116.81 271.13C116.81 272.83 116.81 270.84 116.81 272.54C116.81 276.45 113.64 279.62 109.74 279.62C108.32 279.62 111.15 279.62 109.74 279.62C105.83 279.62 102.66 276.45 102.66 272.54C102.66 270.84 102.66 272.83 102.66 271.13C102.66 267.22 105.83 264.05 109.74 264.05C111.15 264.05 108.32 264.05 109.74 264.05Z" id="bd5qUrd3"></path><path d="M129.67 264.05C133.58 264.05 136.75 267.22 136.75 271.13C136.75 272.83 136.75 270.84 136.75 272.54C136.75 276.45 133.58 279.62 129.67 279.62C128.26 279.62 131.09 279.62 129.67 279.62C125.77 279.62 122.6 276.45 122.6 272.54C122.6 270.84 122.6 272.83 122.6 271.13C122.6 267.22 125.77 264.05 129.67 264.05C131.09 264.05 128.26 264.05 129.67 264.05Z" id="a1kvScwmXG"></path><path d="M148.58 264.05C152.49 264.05 155.66 267.22 155.66 271.13C155.66 272.83 155.66 270.84 155.66 272.54C155.66 276.45 152.49 279.62 148.58 279.62C147.17 279.62 150 279.62 148.58 279.62C144.67 279.62 141.5 276.45 141.5 272.54C141.5 270.84 141.5 272.83 141.5 271.13C141.5 267.22 144.67 264.05 148.58 264.05C150 264.05 147.17 264.05 148.58 264.05Z" id="b4vyCLqjnO"></path><path d="M169.52 264.05C173.43 264.05 176.59 267.22 176.59 271.13C176.59 272.83 176.59 270.84 176.59 272.54C176.59 276.45 173.43 279.62 169.52 279.62C168.1 279.62 170.93 279.62 169.52 279.62C165.61 279.62 162.44 276.45 162.44 272.54C162.44 270.84 162.44 272.83 162.44 271.13C162.44 267.22 165.61 264.05 169.52 264.05C170.93 264.05 168.1 264.05 169.52 264.05Z" id="c2RVMs8x4l"></path><path d="M189.42 264.05C193.33 264.05 196.5 267.22 196.5 271.13C196.5 272.83 196.5 270.84 196.5 272.54C196.5 276.45 193.33 279.62 189.42 279.62C188.01 279.62 190.84 279.62 189.42 279.62C185.52 279.62 182.35 276.45 182.35 272.54C182.35 270.84 182.35 272.83 182.35 271.13C182.35 267.22 185.52 264.05 189.42 264.05C190.84 264.05 188.01 264.05 189.42 264.05Z" id="e8UTOYt43"></path><path d="M209.36 264.05C213.27 264.05 216.44 267.22 216.44 271.13C216.44 272.83 216.44 270.84 216.44 272.54C216.44 276.45 213.27 279.62 209.36 279.62C207.95 279.62 210.78 279.62 209.36 279.62C205.45 279.62 202.29 276.45 202.29 272.54C202.29 270.84 202.29 272.83 202.29 271.13C202.29 267.22 205.45 264.05 209.36 264.05C210.78 264.05 207.95 264.05 209.36 264.05Z" id="a12T6by1lw"></path><path d="M228.27 264.05C232.18 264.05 235.34 267.22 235.34 271.13C235.34 272.83 235.34 270.84 235.34 272.54C235.34 276.45 232.18 279.62 228.27 279.62C226.85 279.62 229.68 279.62 228.27 279.62C224.36 279.62 221.19 276.45 221.19 272.54C221.19 270.84 221.19 272.83 221.19 271.13C221.19 267.22 224.36 264.05 228.27 264.05C229.68 264.05 226.85 264.05 228.27 264.05Z" id="a34tW9PRUG"></path><path d="M247.21 264.05C251.11 264.05 254.28 267.22 254.28 271.13C254.28 272.83 254.28 270.84 254.28 272.54C254.28 276.45 251.11 279.62 247.21 279.62C245.79 279.62 248.62 279.62 247.21 279.62C243.3 279.62 240.13 276.45 240.13 272.54C240.13 270.84 240.13 272.83 240.13 271.13C240.13 267.22 243.3 264.05 247.21 264.05C248.62 264.05 245.79 264.05 247.21 264.05Z" id="c2KXkCFxEu"></path><path d="M11.14 284.05C15.05 284.05 18.22 287.22 18.22 291.13C18.22 292.83 18.22 290.84 18.22 292.54C18.22 296.45 15.05 299.62 11.14 299.62C9.73 299.62 12.56 299.62 11.14 299.62C7.24 299.62 4.07 296.45 4.07 292.54C4.07 290.84 4.07 292.83 4.07 291.13C4.07 287.22 7.24 284.05 11.14 284.05C12.56 284.05 9.73 284.05 11.14 284.05Z" id="d43VRIktW4"></path><path d="M30.05 284.05C33.96 284.05 37.13 287.22 37.13 291.13C37.13 292.83 37.13 290.84 37.13 292.54C37.13 296.45 33.96 299.62 30.05 299.62C28.63 299.62 31.46 299.62 30.05 299.62C26.14 299.62 22.97 296.45 22.97 292.54C22.97 290.84 22.97 292.83 22.97 291.13C22.97 287.22 26.14 284.05 30.05 284.05C31.46 284.05 28.63 284.05 30.05 284.05Z" id="b1baUCx36a"></path><path d="M50.99 284.05C54.89 284.05 58.06 287.22 58.06 291.13C58.06 292.83 58.06 290.84 58.06 292.54C58.06 296.45 54.89 299.62 50.99 299.62C49.57 299.62 52.4 299.62 50.99 299.62C47.08 299.62 43.91 296.45 43.91 292.54C43.91 290.84 43.91 292.83 43.91 291.13C43.91 287.22 47.08 284.05 50.99 284.05C52.4 284.05 49.57 284.05 50.99 284.05Z" id="a3MUGfoTVk"></path><path d="M69.89 284.05C73.8 284.05 76.97 287.22 76.97 291.13C76.97 292.83 76.97 290.84 76.97 292.54C76.97 296.45 73.8 299.62 69.89 299.62C68.48 299.62 71.31 299.62 69.89 299.62C65.99 299.62 62.82 296.45 62.82 292.54C62.82 290.84 62.82 292.83 62.82 291.13C62.82 287.22 65.99 284.05 69.89 284.05C71.31 284.05 68.48 284.05 69.89 284.05Z" id="d4eCwbq1Lk"></path><path d="M90.83 284.05C94.74 284.05 97.91 287.22 97.91 291.13C97.91 292.83 97.91 290.84 97.91 292.54C97.91 296.45 94.74 299.62 90.83 299.62C89.42 299.62 92.25 299.62 90.83 299.62C86.92 299.62 83.75 296.45 83.75 292.54C83.75 290.84 83.75 292.83 83.75 291.13C83.75 287.22 86.92 284.05 90.83 284.05C92.25 284.05 89.42 284.05 90.83 284.05Z" id="al4sgYF9t"></path><path d="M109.74 284.05C113.64 284.05 116.81 287.22 116.81 291.13C116.81 292.83 116.81 290.84 116.81 292.54C116.81 296.45 113.64 299.62 109.74 299.62C108.32 299.62 111.15 299.62 109.74 299.62C105.83 299.62 102.66 296.45 102.66 292.54C102.66 290.84 102.66 292.83 102.66 291.13C102.66 287.22 105.83 284.05 109.74 284.05C111.15 284.05 108.32 284.05 109.74 284.05Z" id="d34xcFVRtC"></path><path d="M129.67 284.05C133.58 284.05 136.75 287.22 136.75 291.13C136.75 292.83 136.75 290.84 136.75 292.54C136.75 296.45 133.58 299.62 129.67 299.62C128.26 299.62 131.09 299.62 129.67 299.62C125.77 299.62 122.6 296.45 122.6 292.54C122.6 290.84 122.6 292.83 122.6 291.13C122.6 287.22 125.77 284.05 129.67 284.05C131.09 284.05 128.26 284.05 129.67 284.05Z" id="a5dT3yEWZ"></path><path d="M148.58 284.05C152.49 284.05 155.66 287.22 155.66 291.13C155.66 292.83 155.66 290.84 155.66 292.54C155.66 296.45 152.49 299.62 148.58 299.62C147.17 299.62 150 299.62 148.58 299.62C144.67 299.62 141.5 296.45 141.5 292.54C141.5 290.84 141.5 292.83 141.5 291.13C141.5 287.22 144.67 284.05 148.58 284.05C150 284.05 147.17 284.05 148.58 284.05Z" id="acA2Ynk1c"></path><path d="M169.52 284.05C173.43 284.05 176.59 287.22 176.59 291.13C176.59 292.83 176.59 290.84 176.59 292.54C176.59 296.45 173.43 299.62 169.52 299.62C168.1 299.62 170.93 299.62 169.52 299.62C165.61 299.62 162.44 296.45 162.44 292.54C162.44 290.84 162.44 292.83 162.44 291.13C162.44 287.22 165.61 284.05 169.52 284.05C170.93 284.05 168.1 284.05 169.52 284.05Z" id="b4HULBasJ"></path><path d="M189.42 284.05C193.33 284.05 196.5 287.22 196.5 291.13C196.5 292.83 196.5 290.84 196.5 292.54C196.5 296.45 193.33 299.62 189.42 299.62C188.01 299.62 190.84 299.62 189.42 299.62C185.52 299.62 182.35 296.45 182.35 292.54C182.35 290.84 182.35 292.83 182.35 291.13C182.35 287.22 185.52 284.05 189.42 284.05C190.84 284.05 188.01 284.05 189.42 284.05Z" id="a4wmqRBbLW"></path><path d="M209.36 284.05C213.27 284.05 216.44 287.22 216.44 291.13C216.44 292.83 216.44 290.84 216.44 292.54C216.44 296.45 213.27 299.62 209.36 299.62C207.95 299.62 210.78 299.62 209.36 299.62C205.45 299.62 202.29 296.45 202.29 292.54C202.29 290.84 202.29 292.83 202.29 291.13C202.29 287.22 205.45 284.05 209.36 284.05C210.78 284.05 207.95 284.05 209.36 284.05Z" id="aJwD2eQiP"></path><path d="M228.27 284.05C232.18 284.05 235.34 287.22 235.34 291.13C235.34 292.83 235.34 290.84 235.34 292.54C235.34 296.45 232.18 299.62 228.27 299.62C226.85 299.62 229.68 299.62 228.27 299.62C224.36 299.62 221.19 296.45 221.19 292.54C221.19 290.84 221.19 292.83 221.19 291.13C221.19 287.22 224.36 284.05 228.27 284.05C229.68 284.05 226.85 284.05 228.27 284.05Z" id="lbiFXM5TG"></path><path d="M247.21 284.05C251.11 284.05 254.28 287.22 254.28 291.13C254.28 292.83 254.28 290.84 254.28 292.54C254.28 296.45 251.11 299.62 247.21 299.62C245.79 299.62 248.62 299.62 247.21 299.62C243.3 299.62 240.13 296.45 240.13 292.54C240.13 290.84 240.13 292.83 240.13 291.13C240.13 287.22 243.3 284.05 247.21 284.05C248.62 284.05 245.79 284.05 247.21 284.05Z" id="c20Tzvc6Xg"></path><path d="M11.14 304.05C15.05 304.05 18.22 307.22 18.22 311.13C18.22 312.83 18.22 310.84 18.22 312.54C18.22 316.45 15.05 319.62 11.14 319.62C9.73 319.62 12.56 319.62 11.14 319.62C7.24 319.62 4.07 316.45 4.07 312.54C4.07 310.84 4.07 312.83 4.07 311.13C4.07 307.22 7.24 304.05 11.14 304.05C12.56 304.05 9.73 304.05 11.14 304.05Z" id="e4DWAS7BN4"></path><path d="M30.05 304.05C33.96 304.05 37.13 307.22 37.13 311.13C37.13 312.83 37.13 310.84 37.13 312.54C37.13 316.45 33.96 319.62 30.05 319.62C28.63 319.62 31.46 319.62 30.05 319.62C26.14 319.62 22.97 316.45 22.97 312.54C22.97 310.84 22.97 312.83 22.97 311.13C22.97 307.22 26.14 304.05 30.05 304.05C31.46 304.05 28.63 304.05 30.05 304.05Z" id="chIf61Xw"></path><path d="M50.99 304.05C54.89 304.05 58.06 307.22 58.06 311.13C58.06 312.83 58.06 310.84 58.06 312.54C58.06 316.45 54.89 319.62 50.99 319.62C49.57 319.62 52.4 319.62 50.99 319.62C47.08 319.62 43.91 316.45 43.91 312.54C43.91 310.84 43.91 312.83 43.91 311.13C43.91 307.22 47.08 304.05 50.99 304.05C52.4 304.05 49.57 304.05 50.99 304.05Z" id="b1c0KyowZ"></path><path d="M69.89 304.05C73.8 304.05 76.97 307.22 76.97 311.13C76.97 312.83 76.97 310.84 76.97 312.54C76.97 316.45 73.8 319.62 69.89 319.62C68.48 319.62 71.31 319.62 69.89 319.62C65.99 319.62 62.82 316.45 62.82 312.54C62.82 310.84 62.82 312.83 62.82 311.13C62.82 307.22 65.99 304.05 69.89 304.05C71.31 304.05 68.48 304.05 69.89 304.05Z" id="a8rmOwVMDy"></path><path d="M90.83 304.05C94.74 304.05 97.91 307.22 97.91 311.13C97.91 312.83 97.91 310.84 97.91 312.54C97.91 316.45 94.74 319.62 90.83 319.62C89.42 319.62 92.25 319.62 90.83 319.62C86.92 319.62 83.75 316.45 83.75 312.54C83.75 310.84 83.75 312.83 83.75 311.13C83.75 307.22 86.92 304.05 90.83 304.05C92.25 304.05 89.42 304.05 90.83 304.05Z" id="cqPHQk8Wn"></path><path d="M109.74 304.05C113.64 304.05 116.81 307.22 116.81 311.13C116.81 312.83 116.81 310.84 116.81 312.54C116.81 316.45 113.64 319.62 109.74 319.62C108.32 319.62 111.15 319.62 109.74 319.62C105.83 319.62 102.66 316.45 102.66 312.54C102.66 310.84 102.66 312.83 102.66 311.13C102.66 307.22 105.83 304.05 109.74 304.05C111.15 304.05 108.32 304.05 109.74 304.05Z" id="e20nnkMQAY"></path><path d="M129.67 304.05C133.58 304.05 136.75 307.22 136.75 311.13C136.75 312.83 136.75 310.84 136.75 312.54C136.75 316.45 133.58 319.62 129.67 319.62C128.26 319.62 131.09 319.62 129.67 319.62C125.77 319.62 122.6 316.45 122.6 312.54C122.6 310.84 122.6 312.83 122.6 311.13C122.6 307.22 125.77 304.05 129.67 304.05C131.09 304.05 128.26 304.05 129.67 304.05Z" id="cem7j6G5A"></path><path d="M148.58 304.05C152.49 304.05 155.66 307.22 155.66 311.13C155.66 312.83 155.66 310.84 155.66 312.54C155.66 316.45 152.49 319.62 148.58 319.62C147.17 319.62 150 319.62 148.58 319.62C144.67 319.62 141.5 316.45 141.5 312.54C141.5 310.84 141.5 312.83 141.5 311.13C141.5 307.22 144.67 304.05 148.58 304.05C150 304.05 147.17 304.05 148.58 304.05Z" id="cWDmUj5Bn"></path><path d="M169.52 304.05C173.43 304.05 176.59 307.22 176.59 311.13C176.59 312.83 176.59 310.84 176.59 312.54C176.59 316.45 173.43 319.62 169.52 319.62C168.1 319.62 170.93 319.62 169.52 319.62C165.61 319.62 162.44 316.45 162.44 312.54C162.44 310.84 162.44 312.83 162.44 311.13C162.44 307.22 165.61 304.05 169.52 304.05C170.93 304.05 168.1 304.05 169.52 304.05Z" id="b9XggEJZfq"></path><path d="M189.42 304.05C193.33 304.05 196.5 307.22 196.5 311.13C196.5 312.83 196.5 310.84 196.5 312.54C196.5 316.45 193.33 319.62 189.42 319.62C188.01 319.62 190.84 319.62 189.42 319.62C185.52 319.62 182.35 316.45 182.35 312.54C182.35 310.84 182.35 312.83 182.35 311.13C182.35 307.22 185.52 304.05 189.42 304.05C190.84 304.05 188.01 304.05 189.42 304.05Z" id="cqHsow2ni"></path><path d="M209.36 304.05C213.27 304.05 216.44 307.22 216.44 311.13C216.44 312.83 216.44 310.84 216.44 312.54C216.44 316.45 213.27 319.62 209.36 319.62C207.95 319.62 210.78 319.62 209.36 319.62C205.45 319.62 202.29 316.45 202.29 312.54C202.29 310.84 202.29 312.83 202.29 311.13C202.29 307.22 205.45 304.05 209.36 304.05C210.78 304.05 207.95 304.05 209.36 304.05Z" id="e2SEdF27EM"></path><path d="M228.27 304.05C232.18 304.05 235.34 307.22 235.34 311.13C235.34 312.83 235.34 310.84 235.34 312.54C235.34 316.45 232.18 319.62 228.27 319.62C226.85 319.62 229.68 319.62 228.27 319.62C224.36 319.62 221.19 316.45 221.19 312.54C221.19 310.84 221.19 312.83 221.19 311.13C221.19 307.22 224.36 304.05 228.27 304.05C229.68 304.05 226.85 304.05 228.27 304.05Z" id="aeDvd6CNZ"></path><path d="M247.21 304.05C251.11 304.05 254.28 307.22 254.28 311.13C254.28 312.83 254.28 310.84 254.28 312.54C254.28 316.45 251.11 319.62 247.21 319.62C245.79 319.62 248.62 319.62 247.21 319.62C243.3 319.62 240.13 316.45 240.13 312.54C240.13 310.84 240.13 312.83 240.13 311.13C240.13 307.22 243.3 304.05 247.21 304.05C248.62 304.05 245.79 304.05 247.21 304.05Z" id="jaXZt0GWp"></path></defs><g><g><g><use xlink:href="#c83yexLl1A" opacity="1" fill="#000000" fill-opacity="0.61"></use></g><g><use xlink:href="#a1jKbB46KY" opacity="1" fill="#000000" fill-opacity="0.61"></use></g><g><use xlink:href="#gby9v1i4q" opacity="1" fill="#000000" fill-opacity="0.61"></use></g><g><use xlink:href="#f8GiSv1tD" opacity="1" fill="#000000" fill-opacity="0.61"></use></g><g><use xlink:href="#e1zNRtKkD" opacity="1" fill="#000000" fill-opacity="0.61"></use></g><g><use xlink:href="#aILowmoZG" opacity="1" fill="#000000" fill-opacity="0.61"></use></g><g><use xlink:href="#bkH4dALMY" opacity="1" fill="#000000" fill-opacity="0.61"></use></g><g><use xlink:href="#b5y8fSzppX" opacity="1" fill="#000000" fill-opacity="0.61"></use></g><g><use xlink:href="#b28FqTmH3w" opacity="1" fill="#000000" fill-opacity="0.61"></use></g><g><use xlink:href="#g4Fj3rjjk" opacity="1" fill="#000000" fill-opacity="0.61"></use></g><g><use xlink:href="#aQMRm3yOF" opacity="1" fill="#000000" fill-opacity="0.61"></use></g><g><use xlink:href="#aj9CbuTWw" opacity="1" fill="#000000" fill-opacity="0.61"></use></g><g><use xlink:href="#a27NZesXX" opacity="1" fill="#000000" fill-opacity="0.61"></use></g><g><use xlink:href="#h2Gnzr8JqS" opacity="1" fill="#000000" fill-opacity="0.61"></use></g><g><use xlink:href="#a6wtUVLLAJ" opacity="1" fill="#000000" fill-opacity="0.61"></use></g><g><use xlink:href="#d2PULfkSUm" opacity="1" fill="#000000" fill-opacity="0.61"></use></g><g><use xlink:href="#a6NpIhdJKz" opacity="1" fill="#000000" fill-opacity="0.61"></use></g><g><use xlink:href="#c6ezfYQGO" opacity="1" fill="#000000" fill-opacity="0.61"></use></g><g><use xlink:href="#a1nEPUDUMR" opacity="1" fill="#000000" fill-opacity="0.61"></use></g><g><use xlink:href="#f368aorTC" opacity="1" fill="#000000" fill-opacity="0.61"></use></g><g><use xlink:href="#i1y2li2y5j" opacity="1" fill="#000000" fill-opacity="0.61"></use></g><g><use xlink:href="#a1JlOzuk1" opacity="1" fill="#000000" fill-opacity="0.61"></use></g><g><use xlink:href="#j3tXkRKFj" opacity="1" fill="#000000" fill-opacity="0.61"></use></g><g><use xlink:href="#a7QDhD8d1" opacity="1" fill="#000000" fill-opacity="0.61"></use></g><g><use xlink:href="#b1d3ObLBFT" opacity="1" fill="#000000" fill-opacity="0.61"></use></g><g><use xlink:href="#cRzTOXHo6" opacity="1" fill="#000000" fill-opacity="0.61"></use></g><g><use xlink:href="#a12P0QMsFs" opacity="1" fill="#000000" fill-opacity="0.61"></use></g><g><use xlink:href="#bOYH3N4RN" opacity="1" fill="#000000" fill-opacity="0.61"></use></g><g><use xlink:href="#aKpxgD4h2" opacity="1" fill="#000000" fill-opacity="0.61"></use></g><g><use xlink:href="#aWvtSQtPs" opacity="1" fill="#000000" fill-opacity="0.61"></use></g><g><use xlink:href="#lsfTKJXNL" opacity="1" fill="#000000" fill-opacity="0.61"></use></g><g><use xlink:href="#a2HIsi8CbM" opacity="1" fill="#000000" fill-opacity="0.61"></use></g><g><use xlink:href="#i4CZlQscw0" opacity="1" fill="#000000" fill-opacity="0.61"></use></g><g><use xlink:href="#c1MCGslL1k" opacity="1" fill="#000000" fill-opacity="0.61"></use></g><g><use xlink:href="#c4lIvwEJF" opacity="1" fill="#000000" fill-opacity="0.61"></use></g><g><use xlink:href="#a3SWCysTAd" opacity="1" fill="#000000" fill-opacity="0.61"></use></g><g><use xlink:href="#f8BfFIKHV" opacity="1" fill="#000000" fill-opacity="0.61"></use></g><g><use xlink:href="#lg7RLEygu" opacity="1" fill="#000000" fill-opacity="0.61"></use></g><g><use xlink:href="#b5eEQzxa0" opacity="1" fill="#000000" fill-opacity="0.61"></use></g><g><use xlink:href="#c87TAibMI" opacity="1" fill="#000000" fill-opacity="0.61"></use></g><g><use xlink:href="#a26CWCuUl" opacity="1" fill="#000000" fill-opacity="0.61"></use></g><g><use xlink:href="#b28642q0b9" opacity="1" fill="#000000" fill-opacity="0.61"></use></g><g><use xlink:href="#c4TgvUVh0p" opacity="1" fill="#000000" fill-opacity="0.61"></use></g><g><use xlink:href="#b2xdhcCJPl" opacity="1" fill="#000000" fill-opacity="0.61"></use></g><g><use xlink:href="#a2bfi4Lzl" opacity="1" fill="#000000" fill-opacity="0.61"></use></g><g><use xlink:href="#d6FHtALpn7" opacity="1" fill="#000000" fill-opacity="0.61"></use></g><g><use xlink:href="#j2FbYe8VBd" opacity="1" fill="#000000" fill-opacity="0.61"></use></g><g><use xlink:href="#csWShrMbt" opacity="1" fill="#000000" fill-opacity="0.61"></use></g><g><use xlink:href="#aP0cRdQp4" opacity="1" fill="#000000" fill-opacity="0.61"></use></g><g><use xlink:href="#c2ajOHLi9u" opacity="1" fill="#000000" fill-opacity="0.61"></use></g><g><use xlink:href="#a8PikgZhCv" opacity="1" fill="#000000" fill-opacity="0.61"></use></g><g><use xlink:href="#h1XX7XXF4X" opacity="1" fill="#000000" fill-opacity="0.61"></use></g><g><use xlink:href="#c1PfHqdAb" opacity="1" fill="#000000" fill-opacity="0.61"></use></g><g><use xlink:href="#b5vfQUXnxN" opacity="1" fill="#000000" fill-opacity="0.61"></use></g><g><use xlink:href="#dCk70JhgO" opacity="1" fill="#000000" fill-opacity="0.61"></use></g><g><use xlink:href="#cbDvuIXIw" opacity="1" fill="#000000" fill-opacity="0.61"></use></g><g><use xlink:href="#a3mooW99M" opacity="1" fill="#000000" fill-opacity="0.61"></use></g><g><use xlink:href="#d1J3fq4PRU" opacity="1" fill="#000000" fill-opacity="0.61"></use></g><g><use xlink:href="#b4et2HAdBw" opacity="1" fill="#000000" fill-opacity="0.61"></use></g><g><use xlink:href="#aAFlX3sLF" opacity="1" fill="#000000" fill-opacity="0.61"></use></g><g><use xlink:href="#c7MV2DtMRO" opacity="1" fill="#000000" fill-opacity="0.61"></use></g><g><use xlink:href="#b4Z5tfazUW" opacity="1" fill="#000000" fill-opacity="0.61"></use></g><g><use xlink:href="#eAa1Up9W0" opacity="1" fill="#000000" fill-opacity="0.61"></use></g><g><use xlink:href="#c8TczDnZoj" opacity="1" fill="#000000" fill-opacity="0.61"></use></g><g><use xlink:href="#baKNkTH4b" opacity="1" fill="#000000" fill-opacity="0.61"></use></g><g><use xlink:href="#f2E2UurHg0" opacity="1" fill="#000000" fill-opacity="0.61"></use></g><g><use xlink:href="#bfHO5OG3A" opacity="1" fill="#000000" fill-opacity="0.61"></use></g><g><use xlink:href="#d1G0rBA1I" opacity="1" fill="#000000" fill-opacity="0.61"></use></g><g><use xlink:href="#b1miaddeN0" opacity="1" fill="#000000" fill-opacity="0.61"></use></g><g><use xlink:href="#i1qUVOP6dQ" opacity="1" fill="#000000" fill-opacity="0.61"></use></g><g><use xlink:href="#c1cJI9xkYq" opacity="1" fill="#000000" fill-opacity="0.61"></use></g><g><use xlink:href="#b1pZcbpQCz" opacity="1" fill="#000000" fill-opacity="0.61"></use></g><g><use xlink:href="#g1HJu1nCXb" opacity="1" fill="#000000" fill-opacity="0.61"></use></g><g><use xlink:href="#dbiKzRHbx" opacity="1" fill="#000000" fill-opacity="0.61"></use></g><g><use xlink:href="#aSlpSkg9w" opacity="1" fill="#000000" fill-opacity="0.61"></use></g><g><use xlink:href="#cqErPVsss" opacity="1" fill="#000000" fill-opacity="0.61"></use></g><g><use xlink:href="#bOiWxtRJh" opacity="1" fill="#000000" fill-opacity="0.61"></use></g><g><use xlink:href="#b63WDVEH5v" opacity="1" fill="#000000" fill-opacity="0.61"></use></g><g><use xlink:href="#eflDeNsew" opacity="1" fill="#000000" fill-opacity="0.61"></use></g><g><use xlink:href="#ceYrcmmiX" opacity="1" fill="#000000" fill-opacity="0.61"></use></g><g><use xlink:href="#f1893qjoy" opacity="1" fill="#000000" fill-opacity="0.61"></use></g><g><use xlink:href="#f1z1cN3me9" opacity="1" fill="#000000" fill-opacity="0.61"></use></g><g><use xlink:href="#icRi5HRM" opacity="1" fill="#000000" fill-opacity="0.61"></use></g><g><use xlink:href="#a1itiK72Aj" opacity="1" fill="#000000" fill-opacity="0.61"></use></g><g><use xlink:href="#e48At6EPi4" opacity="1" fill="#000000" fill-opacity="0.61"></use></g><g><use xlink:href="#a7jWSjdE3h" opacity="1" fill="#000000" fill-opacity="0.61"></use></g><g><use xlink:href="#b93lH4PRLe" opacity="1" fill="#000000" fill-opacity="0.61"></use></g><g><use xlink:href="#ctwJS2sg" opacity="1" fill="#000000" fill-opacity="0.61"></use></g><g><use xlink:href="#a3iVhRQysz" opacity="1" fill="#000000" fill-opacity="0.61"></use></g><g><use xlink:href="#cgEyS4Rv2" opacity="1" fill="#000000" fill-opacity="0.61"></use></g><g><use xlink:href="#i2hyaIgzJe" opacity="1" fill="#000000" fill-opacity="0.61"></use></g><g><use xlink:href="#ejnMYuXSe" opacity="1" fill="#000000" fill-opacity="0.61"></use></g><g><use xlink:href="#cbB5NLV8B" opacity="1" fill="#000000" fill-opacity="0.61"></use></g><g><use xlink:href="#e1qAgNo4jt" opacity="1" fill="#000000" fill-opacity="0.61"></use></g><g><use xlink:href="#a1u2s96Juk" opacity="1" fill="#000000" fill-opacity="0.61"></use></g><g><use xlink:href="#a1dL3yj69t" opacity="1" fill="#000000" fill-opacity="0.61"></use></g><g><use xlink:href="#eZrIqQb9Y" opacity="1" fill="#000000" fill-opacity="0.61"></use></g><g><use xlink:href="#b7A8WZy4kK" opacity="1" fill="#000000" fill-opacity="0.61"></use></g><g><use xlink:href="#f1GNdu0elf" opacity="1" fill="#000000" fill-opacity="0.61"></use></g><g><use xlink:href="#a4W8znih1w" opacity="1" fill="#000000" fill-opacity="0.61"></use></g><g><use xlink:href="#cmOXsDYVz" opacity="1" fill="#000000" fill-opacity="0.61"></use></g><g><use xlink:href="#d5PKTX8DXI" opacity="1" fill="#000000" fill-opacity="0.61"></use></g><g><use xlink:href="#aCrbidq0E" opacity="1" fill="#000000" fill-opacity="0.61"></use></g><g><use xlink:href="#f351Eca55x" opacity="1" fill="#000000" fill-opacity="0.61"></use></g><g><use xlink:href="#c7gcPbijD6" opacity="1" fill="#000000" fill-opacity="0.61"></use></g><g><use xlink:href="#alCavDcMi" opacity="1" fill="#000000" fill-opacity="0.61"></use></g><g><use xlink:href="#a2eVbUKe5" opacity="1" fill="#000000" fill-opacity="0.61"></use></g><g><use xlink:href="#b3RFFVdjTQ" opacity="1" fill="#000000" fill-opacity="0.61"></use></g><g><use xlink:href="#hdVoLbMRn" opacity="1" fill="#000000" fill-opacity="0.61"></use></g><g><use xlink:href="#bjt0RLsz" opacity="1" fill="#000000" fill-opacity="0.61"></use></g><g><use xlink:href="#bn6YNOcfo" opacity="1" fill="#000000" fill-opacity="0.61"></use></g><g><use xlink:href="#a1BuGFpzy1" opacity="1" fill="#000000" fill-opacity="0.61"></use></g><g><use xlink:href="#bk0yXDzX" opacity="1" fill="#000000" fill-opacity="0.61"></use></g><g><use xlink:href="#ccX1DDZED" opacity="1" fill="#000000" fill-opacity="0.61"></use></g><g><use xlink:href="#e2CdtfWIem" opacity="1" fill="#000000" fill-opacity="0.61"></use></g><g><use xlink:href="#i5Aq1HvC65" opacity="1" fill="#000000" fill-opacity="0.61"></use></g><g><use xlink:href="#eb1T0R3Yx" opacity="1" fill="#000000" fill-opacity="0.61"></use></g><g><use xlink:href="#b4NqtZqxmk" opacity="1" fill="#000000" fill-opacity="0.61"></use></g><g><use xlink:href="#c68VHl0JCF" opacity="1" fill="#000000" fill-opacity="0.61"></use></g><g><use xlink:href="#beyUUjqi8" opacity="1" fill="#000000" fill-opacity="0.61"></use></g><g><use xlink:href="#bGTzfp6TN" opacity="1" fill="#000000" fill-opacity="0.61"></use></g><g><use xlink:href="#e3P4AGTFg" opacity="1" fill="#000000" fill-opacity="0.61"></use></g><g><use xlink:href="#c1faCMXaTM" opacity="1" fill="#000000" fill-opacity="0.61"></use></g><g><use xlink:href="#a1zbKoHEsI" opacity="1" fill="#000000" fill-opacity="0.61"></use></g><g><use xlink:href="#b8VyUA5T5" opacity="1" fill="#000000" fill-opacity="0.61"></use></g><g><use xlink:href="#i4o9V3C3" opacity="1" fill="#000000" fill-opacity="0.61"></use></g><g><use xlink:href="#a27sx3t3H" opacity="1" fill="#000000" fill-opacity="0.61"></use></g><g><use xlink:href="#c1hE04cHkk" opacity="1" fill="#000000" fill-opacity="0.61"></use></g><g><use xlink:href="#g3lH7Hvso" opacity="1" fill="#000000" fill-opacity="0.61"></use></g><g><use xlink:href="#m2M6Az3RVS" opacity="1" fill="#000000" fill-opacity="0.61"></use></g><g><use xlink:href="#a5p2EgCWfd" opacity="1" fill="#000000" fill-opacity="0.61"></use></g><g><use xlink:href="#alaHu9TYS" opacity="1" fill="#000000" fill-opacity="0.61"></use></g><g><use xlink:href="#iVQ63ONmE" opacity="1" fill="#000000" fill-opacity="0.61"></use></g><g><use xlink:href="#d2tCPG0IBc" opacity="1" fill="#000000" fill-opacity="0.61"></use></g><g><use xlink:href="#b9gOoS6SG" opacity="1" fill="#000000" fill-opacity="0.61"></use></g><g><use xlink:href="#c3dQTuhfw" opacity="1" fill="#000000" fill-opacity="0.61"></use></g><g><use xlink:href="#bzzu6WIPQ" opacity="1" fill="#000000" fill-opacity="0.61"></use></g><g><use xlink:href="#a5cDoS6YIY" opacity="1" fill="#000000" fill-opacity="0.61"></use></g><g><use xlink:href="#a1ytcomaZC" opacity="1" fill="#000000" fill-opacity="0.61"></use></g><g><use xlink:href="#cfRKTWjGY" opacity="1" fill="#000000" fill-opacity="0.61"></use></g><g><use xlink:href="#a2XmLiIftC" opacity="1" fill="#000000" fill-opacity="0.61"></use></g><g><use xlink:href="#jYDBKIyc" opacity="1" fill="#000000" fill-opacity="0.61"></use></g><g><use xlink:href="#bfFeGFreq" opacity="1" fill="#000000" fill-opacity="0.61"></use></g><g><use xlink:href="#dVBUIQ7bc" opacity="1" fill="#000000" fill-opacity="0.61"></use></g><g><use xlink:href="#d3etpvz4rh" opacity="1" fill="#000000" fill-opacity="0.61"></use></g><g><use xlink:href="#g1YASh7P6R" opacity="1" fill="#000000" fill-opacity="0.61"></use></g><g><use xlink:href="#a16ihobtO9" opacity="1" fill="#000000" fill-opacity="0.61"></use></g><g><use xlink:href="#a1sqw0aDoe" opacity="1" fill="#000000" fill-opacity="0.61"></use></g><g><use xlink:href="#cO2EEsZ8F" opacity="1" fill="#000000" fill-opacity="0.61"></use></g><g><use xlink:href="#g5LI8swjRc" opacity="1" fill="#000000" fill-opacity="0.61"></use></g><g><use xlink:href="#baueAQk9P" opacity="1" fill="#000000" fill-opacity="0.61"></use></g><g><use xlink:href="#d1MCAVMwTN" opacity="1" fill="#000000" fill-opacity="0.61"></use></g><g><use xlink:href="#g1j4u4YNLN" opacity="1" fill="#000000" fill-opacity="0.61"></use></g><g><use xlink:href="#fs64WHlfb" opacity="1" fill="#000000" fill-opacity="0.61"></use></g><g><use xlink:href="#aAcVdTfCc" opacity="1" fill="#000000" fill-opacity="0.61"></use></g><g><use xlink:href="#c1qsUrdhG2" opacity="1" fill="#000000" fill-opacity="0.61"></use></g><g><use xlink:href="#e3xJDnxzJ5" opacity="1" fill="#000000" fill-opacity="0.61"></use></g><g><use xlink:href="#a59EqvObe" opacity="1" fill="#000000" fill-opacity="0.61"></use></g><g><use xlink:href="#c1ZDDsXROm" opacity="1" fill="#000000" fill-opacity="0.61"></use></g><g><use xlink:href="#ak93d02v3" opacity="1" fill="#000000" fill-opacity="0.61"></use></g><g><use xlink:href="#aeWyHduF8" opacity="1" fill="#000000" fill-opacity="0.61"></use></g><g><use xlink:href="#a4Z8A3FpF2" opacity="1" fill="#000000" fill-opacity="0.61"></use></g><g><use xlink:href="#f4Sg2qkUg2" opacity="1" fill="#000000" fill-opacity="0.61"></use></g><g><use xlink:href="#g3cmBj5enj" opacity="1" fill="#000000" fill-opacity="0.61"></use></g><g><use xlink:href="#a9QGyym9V" opacity="1" fill="#000000" fill-opacity="0.61"></use></g><g><use xlink:href="#b7pT20kmK7" opacity="1" fill="#000000" fill-opacity="0.61"></use></g><g><use xlink:href="#c9iP53qFc" opacity="1" fill="#000000" fill-opacity="0.61"></use></g><g><use xlink:href="#f13fFBEPP7" opacity="1" fill="#000000" fill-opacity="0.61"></use></g><g><use xlink:href="#h1oWA6AKSx" opacity="1" fill="#000000" fill-opacity="0.61"></use></g><g><use xlink:href="#c1ezgLANI3" opacity="1" fill="#000000" fill-opacity="0.61"></use></g><g><use xlink:href="#a2TK1gb4W2" opacity="1" fill="#000000" fill-opacity="0.61"></use></g><g><use xlink:href="#j2fPSyWDWm" opacity="1" fill="#000000" fill-opacity="0.61"></use></g><g><use xlink:href="#i12MqFixsJ" opacity="1" fill="#000000" fill-opacity="0.61"></use></g><g><use xlink:href="#c1QLXMcdgO" opacity="1" fill="#000000" fill-opacity="0.61"></use></g><g><use xlink:href="#bd5qUrd3" opacity="1" fill="#000000" fill-opacity="0.61"></use></g><g><use xlink:href="#a1kvScwmXG" opacity="1" fill="#000000" fill-opacity="0.61"></use></g><g><use xlink:href="#b4vyCLqjnO" opacity="1" fill="#000000" fill-opacity="0.61"></use></g><g><use xlink:href="#c2RVMs8x4l" opacity="1" fill="#000000" fill-opacity="0.61"></use></g><g><use xlink:href="#e8UTOYt43" opacity="1" fill="#000000" fill-opacity="0.61"></use></g><g><use xlink:href="#a12T6by1lw" opacity="1" fill="#000000" fill-opacity="0.61"></use></g><g><use xlink:href="#a34tW9PRUG" opacity="1" fill="#000000" fill-opacity="0.61"></use></g><g><use xlink:href="#c2KXkCFxEu" opacity="1" fill="#000000" fill-opacity="0.61"></use></g><g><use xlink:href="#d43VRIktW4" opacity="1" fill="#000000" fill-opacity="0.61"></use></g><g><use xlink:href="#b1baUCx36a" opacity="1" fill="#000000" fill-opacity="0.61"></use></g><g><use xlink:href="#a3MUGfoTVk" opacity="1" fill="#000000" fill-opacity="0.61"></use></g><g><use xlink:href="#d4eCwbq1Lk" opacity="1" fill="#000000" fill-opacity="0.61"></use></g><g><use xlink:href="#al4sgYF9t" opacity="1" fill="#000000" fill-opacity="0.61"></use></g><g><use xlink:href="#d34xcFVRtC" opacity="1" fill="#000000" fill-opacity="0.61"></use></g><g><use xlink:href="#a5dT3yEWZ" opacity="1" fill="#000000" fill-opacity="0.61"></use></g><g><use xlink:href="#acA2Ynk1c" opacity="1" fill="#000000" fill-opacity="0.61"></use></g><g><use xlink:href="#b4HULBasJ" opacity="1" fill="#000000" fill-opacity="0.61"></use></g><g><use xlink:href="#a4wmqRBbLW" opacity="1" fill="#000000" fill-opacity="0.61"></use></g><g><use xlink:href="#aJwD2eQiP" opacity="1" fill="#000000" fill-opacity="0.61"></use></g><g><use xlink:href="#lbiFXM5TG" opacity="1" fill="#000000" fill-opacity="0.61"></use></g><g><use xlink:href="#c20Tzvc6Xg" opacity="1" fill="#000000" fill-opacity="0.61"></use></g><g><use xlink:href="#e4DWAS7BN4" opacity="1" fill="#000000" fill-opacity="0.61"></use></g><g><use xlink:href="#chIf61Xw" opacity="1" fill="#000000" fill-opacity="0.61"></use></g><g><use xlink:href="#b1c0KyowZ" opacity="1" fill="#000000" fill-opacity="0.61"></use></g><g><use xlink:href="#a8rmOwVMDy" opacity="1" fill="#000000" fill-opacity="0.61"></use></g><g><use xlink:href="#cqPHQk8Wn" opacity="1" fill="#000000" fill-opacity="0.61"></use></g><g><use xlink:href="#e20nnkMQAY" opacity="1" fill="#000000" fill-opacity="0.61"></use></g><g><use xlink:href="#cem7j6G5A" opacity="1" fill="#000000" fill-opacity="0.61"></use></g><g><use xlink:href="#cWDmUj5Bn" opacity="1" fill="#000000" fill-opacity="0.61"></use></g><g><use xlink:href="#b9XggEJZfq" opacity="1" fill="#000000" fill-opacity="0.61"></use></g><g><use xlink:href="#cqHsow2ni" opacity="1" fill="#000000" fill-opacity="0.61"></use></g><g><use xlink:href="#e2SEdF27EM" opacity="1" fill="#000000" fill-opacity="0.61"></use></g><g><use xlink:href="#aeDvd6CNZ" opacity="1" fill="#000000" fill-opacity="0.61"></use></g><g><use xlink:href="#jaXZt0GWp" opacity="1" fill="#000000" fill-opacity="0.61"></use></g></g></g></svg>